<svg width="50" height="50" viewBox="0 0 50 50" fill="none" xmlns="http://www.w3.org/2000/svg">
<path d="M20.8333 27.0833C21.728 28.2794 22.8695 29.2691 24.1803 29.9853C25.4911 30.7014 26.9406 31.1273 28.4305 31.234C29.9204 31.3407 31.4158 31.1257 32.8153 30.6037C34.2148 30.0816 35.4856 29.2647 36.5416 28.2083L42.7916 21.9583C44.6891 19.9937 45.7391 17.3624 45.7153 14.6312C45.6916 11.9 44.5961 9.28736 42.6648 7.35603C40.7334 5.42469 38.1208 4.32918 35.3896 4.30545C32.6584 4.28171 30.0271 5.33166 28.0625 7.22914L24.4791 10.7916" stroke="#3E5A76" stroke-width="4.16667" stroke-linecap="round" stroke-linejoin="round"/>
<path d="M29.1666 22.9167C28.2719 21.7206 27.1304 20.7309 25.8196 20.0147C24.5088 19.2986 23.0593 18.8727 21.5694 18.766C20.0795 18.6593 18.5841 18.8743 17.1846 19.3963C15.7851 19.9184 14.5143 20.7353 13.4583 21.7917L7.20826 28.0417C5.31078 30.0063 4.26084 32.6376 4.28457 35.3688C4.30831 38.1 5.40382 40.7126 7.33515 42.644C9.26649 44.5753 11.8791 45.6708 14.6103 45.6945C17.3415 45.7183 19.9728 44.6683 21.9374 42.7709L25.4999 39.2084" stroke="#3E5A76" stroke-width="4.16667" stroke-linecap="round" stroke-linejoin="round"/>
</svg>
