<svg width="50" height="50" viewBox="0 0 50 50" fill="none" xmlns="http://www.w3.org/2000/svg">
<path d="M15.9084 21.55C15.9084 22.0625 15.9646 22.4792 16.0605 22.7833C16.1709 23.0875 16.3105 23.4208 16.5042 23.7812C16.5661 23.8762 16.6 23.9867 16.6021 24.1C16.6021 24.2396 16.5188 24.3771 16.3396 24.5167L15.4667 25.0979C15.3613 25.1738 15.2361 25.2172 15.1063 25.2229C14.9667 25.2229 14.8292 25.1542 14.6896 25.0292C14.5028 24.8286 14.336 24.6102 14.1917 24.3771C14.0364 24.1115 13.8932 23.839 13.7626 23.5604C12.6813 24.8354 11.323 25.4729 9.68756 25.4729C8.52297 25.4729 7.59589 25.1396 6.91672 24.475C6.23756 23.8104 5.89172 22.9229 5.89172 21.8146C5.89172 20.6375 6.30839 19.6812 7.15214 18.9604C7.99589 18.2396 9.12089 17.8792 10.548 17.8792C11.0188 17.8792 11.5042 17.9208 12.0167 17.9896C12.5271 18.0563 13.0542 18.1687 13.6084 18.2917V17.2812C13.6084 16.2271 13.3876 15.4937 12.9563 15.0646C12.5146 14.6333 11.7646 14.4271 10.698 14.4271C10.2126 14.4271 9.71464 14.4833 9.20214 14.6063C8.693 14.7275 8.19313 14.8849 7.70631 15.0771C7.54829 15.1472 7.38619 15.2077 7.22089 15.2583C7.14934 15.2815 7.07513 15.2955 7.00006 15.3C6.80631 15.3 6.70839 15.1604 6.70839 14.8708V14.1917C6.70839 13.9708 6.73547 13.8042 6.80631 13.7062C6.91051 13.5797 7.04333 13.4797 7.19381 13.4146C7.67714 13.1646 8.25839 12.9583 8.93756 12.7917C9.64404 12.6112 10.3709 12.523 11.1001 12.5292C12.7501 12.5292 13.9542 12.9042 14.7313 13.6521C15.4938 14.4 15.8813 15.5375 15.8813 17.0604V21.55H15.9084ZM10.2834 23.6562C10.7417 23.6562 11.2126 23.5729 11.7105 23.4062C12.2084 23.2396 12.6521 22.9354 13.0271 22.5187C13.248 22.2562 13.4146 21.9646 13.498 21.6313C13.5813 21.2979 13.6376 20.8958 13.6376 20.425V19.8437C13.2163 19.7427 12.79 19.6641 12.3605 19.6083C11.9286 19.553 11.4937 19.5252 11.0584 19.525C10.1292 19.525 9.45006 19.7042 8.99381 20.0792C8.53547 20.4542 8.31464 20.9792 8.31464 21.6729C8.31464 22.325 8.48131 22.8083 8.82714 23.1417C9.16047 23.4896 9.64589 23.6562 10.2834 23.6562ZM21.4105 25.1521C21.1605 25.1521 20.9938 25.1104 20.8834 25.0125C20.773 24.9292 20.6751 24.7354 20.5917 24.4729L17.3355 13.7604C17.2521 13.4833 17.2105 13.3021 17.2105 13.2063C17.2105 12.9854 17.3209 12.8604 17.5438 12.8604H18.9021C19.1646 12.8604 19.3459 12.9021 19.4417 13C19.5521 13.0833 19.6355 13.2771 19.7188 13.5396L22.048 22.7125L24.2105 13.5396C24.2792 13.2625 24.3626 13.0812 24.473 13C24.6389 12.8976 24.8325 12.8488 25.0271 12.8604H26.1355C26.398 12.8604 26.5792 12.9021 26.6896 13C26.8001 13.0833 26.898 13.2771 26.9521 13.5396L29.1417 22.825L31.5396 13.5396C31.623 13.2625 31.7188 13.0812 31.8167 13C31.9773 12.8977 32.1662 12.8488 32.3563 12.8604H33.6459C33.8667 12.8604 33.9917 12.9708 33.9917 13.2063C33.9917 13.275 33.9771 13.3458 33.9646 13.4271C33.9426 13.5451 33.9099 13.6609 33.8667 13.7729L30.5271 24.4854C30.4438 24.7625 30.348 24.9437 30.2355 25.025C30.0788 25.1258 29.8944 25.1747 29.7084 25.1646H28.5167C28.2542 25.1646 28.073 25.1229 27.9626 25.025C27.8521 24.9271 27.7542 24.7479 27.7001 24.4708L25.5521 15.5333L23.4188 24.4583C23.3501 24.7354 23.2667 24.9167 23.1563 25.0125C23.0459 25.1083 22.8521 25.1521 22.6021 25.1521H21.4105ZM39.2188 25.5271C38.498 25.5271 37.7771 25.4438 37.0855 25.2771C36.3917 25.1104 35.8521 24.9312 35.4917 24.7229C35.2709 24.5979 35.1167 24.4604 35.0626 24.3354C35.0082 24.2134 34.9798 24.0815 34.9792 23.9479V23.2417C34.9792 22.95 35.0896 22.8125 35.298 22.8125C35.3813 22.8125 35.4646 22.8271 35.548 22.8542C35.6313 22.8813 35.7563 22.9375 35.8938 22.9937C36.3646 23.2021 36.8771 23.3688 37.4188 23.4792C37.973 23.5896 38.5126 23.6458 39.0688 23.6458C39.9417 23.6458 40.6209 23.4937 41.0917 23.1875C41.3175 23.0513 41.5032 22.8577 41.6298 22.6264C41.7565 22.3952 41.8195 22.1344 41.8126 21.8708C41.8172 21.6923 41.7864 21.5146 41.722 21.348C41.6577 21.1813 41.561 21.0291 41.4376 20.9C41.1876 20.6375 40.7167 20.4021 40.0376 20.1792L38.0271 19.5563C37.0146 19.2375 36.2667 18.7667 35.8105 18.1437C35.3637 17.5685 35.1198 16.8617 35.1167 16.1333C35.1167 15.5521 35.2417 15.0396 35.4917 14.5958C35.7417 14.1521 36.073 13.7646 36.4896 13.4604C36.9063 13.1417 37.3771 12.9062 37.9313 12.7396C38.4834 12.5687 39.0646 12.5 39.6751 12.5C39.9792 12.5 40.298 12.5146 40.6042 12.5562C40.923 12.5979 41.2146 12.6542 41.5042 12.7083C41.7813 12.7771 42.0438 12.8479 42.2938 12.9292C42.5438 13.0125 42.7376 13.0958 42.8751 13.1792C43.0688 13.2896 43.2084 13.4 43.2917 13.525C43.3751 13.6354 43.4167 13.7875 43.4167 13.9833V14.6354C43.4167 14.9271 43.3063 15.0792 43.098 15.0792C42.9133 15.0577 42.7343 15.0012 42.5709 14.9125C41.7335 14.5426 40.8258 14.3585 39.9105 14.3729C39.1209 14.3729 38.498 14.4979 38.0667 14.7604C37.6376 15.0229 37.4146 15.425 37.4146 15.9937C37.4146 16.3812 37.5542 16.7146 37.8313 16.9771C38.1084 17.2396 38.6209 17.5042 39.3563 17.7396L41.3251 18.3625C42.323 18.6813 43.0438 19.125 43.473 19.6937C43.9021 20.2625 44.1105 20.9125 44.1105 21.6333C44.1105 22.2292 43.9855 22.7688 43.7501 23.2417C43.5001 23.7125 43.1688 24.1292 42.7376 24.4604C42.2804 24.8163 41.7581 25.0796 41.2001 25.2354C40.5751 25.4292 39.9251 25.5271 39.2188 25.5271Z" fill="#262D34"/>
<path fill-rule="evenodd" clip-rule="evenodd" d="M41.8374 32.2604C37.2791 35.6271 30.6541 37.4146 24.9583 37.4146C16.977 37.4146 9.78328 34.4625 4.35203 29.5562C3.92286 29.1687 4.31036 28.6416 4.82286 28.9458C10.6979 32.3541 17.9458 34.4187 25.4437 34.4187C30.502 34.4187 36.0583 33.3646 41.1729 31.2041C41.9333 30.8625 42.5854 31.7062 41.8374 32.2604Z" fill="#262D34"/>
<path fill-rule="evenodd" clip-rule="evenodd" d="M43.7354 30.1C43.1542 29.3521 39.8833 29.7396 38.4 29.9208C37.9562 29.9771 37.8875 29.5875 38.2896 29.2979C40.8958 27.4687 45.1771 27.9958 45.675 28.6042C46.1729 29.2271 45.5354 33.5104 43.0979 35.5604C42.7229 35.8792 42.3625 35.7125 42.5292 35.2979C43.0833 33.925 44.3167 30.8333 43.7354 30.1Z" fill="#262D34"/>
</svg>
