<svg width="50" height="50" viewBox="0 0 50 50" fill="none" xmlns="http://www.w3.org/2000/svg">
<path d="M25 2C24.2852 2 23.5703 2.17969 22.9336 2.53906L6.08984 12.0039C4.80078 12.7266 4 14.082 4 15.5352V34.4648C4 35.918 4.80078 37.2734 6.08984 37.9961L22.9336 47.4609C23.5703 47.8203 24.2852 48 25 48C25.7148 48 26.4297 47.8203 27.0664 47.4609L43.9102 38C45.1992 37.2734 46 35.918 46 34.4648V15.5352C46 14.082 45.1992 12.7266 43.9102 12.0039L27.0664 2.53906C26.4297 2.17969 25.7148 2 25 2ZM25 13C28.7812 13 32.2773 14.7539 34.543 17.7383L30.1602 20.2773C28.8438 18.8359 26.9727 18 25 18C21.1406 18 18 21.1406 18 25C18 28.8594 21.1406 32 25 32C26.9727 32 28.8438 31.1641 30.1602 29.7227L34.543 32.2617C32.2773 35.2461 28.7812 37 25 37C18.3828 37 13 31.6172 13 25C13 18.3828 18.3828 13 25 13ZM35 20H37V22H39V20H41V22H43V24H41V26H43V28H41V30H39V28H37V30H35V28H33V26H35V24H33V22H35V20ZM37 24V26H39V24H37Z" fill="#7A5592"/>
</svg>
