<svg width="50" height="50" viewBox="0 0 50 50" fill="none" xmlns="http://www.w3.org/2000/svg">
<path d="M25.1355 16.2574V17.9338H17.5281L17.5169 17.9229L17.506 17.9338H2.61573C2.60854 17.9338 2.60164 17.9366 2.59656 17.9417C2.59147 17.9468 2.58861 17.9537 2.58861 17.9609V25.3652H0.195251V25.5279H2.58861V32.8393C2.58861 32.8465 2.59147 32.8534 2.59656 32.8585C2.60164 32.8635 2.60854 32.8664 2.61573 32.8664H9.97394V36.2023H10.1367V32.8664H17.4355V32.8936H17.4786L17.5166 32.9317L17.5559 32.8936H17.5983V32.8664H25.1354V34.0564H25.2981V32.8664H32.8672V32.8936H32.9096L32.9489 32.9317L32.9869 32.8936H33.03V32.8664H40.3245V34.4895H40.4873V32.8664H47.8501C47.8573 32.8664 47.8642 32.8635 47.8693 32.8584C47.8744 32.8534 47.8773 32.8465 47.8773 32.8393V25.5279H49.8046V25.3652H47.8773V17.9609C47.8773 17.9537 47.8744 17.9468 47.8693 17.9417C47.8642 17.9366 47.8573 17.9338 47.8501 17.9338H40.4873V17.9287H40.3245V17.9338H32.9601L32.9492 17.9229L32.9379 17.9338H25.2985V16.2574H25.1355ZM2.68085 17.988H9.97382V25.2962L2.68085 17.988ZM10.1367 17.988H17.4355V18.0038L10.1367 25.2913V17.988ZM17.5984 17.988H25.1355V25.2951L17.5984 18.0017V17.988ZM25.2984 17.988H32.8676V18.0019L25.2984 25.3261V17.988ZM33.0301 17.988H40.3246V25.2869L33.0301 18.0037V17.988ZM40.4871 17.988H47.7848L40.4871 25.3009V17.988ZM2.64257 18.0265L9.96561 25.3652H2.64257V18.0265ZM47.8223 18.0265V25.3652H40.4992L47.8223 18.0265ZM17.5976 18.0774L25.1289 25.3652H17.5976V18.0774ZM32.8664 18.0774V25.3652H25.3351L32.8664 18.0774ZM17.4348 18.0805V25.3649H10.1391L17.4348 18.0805ZM33.0293 18.0805L40.3238 25.3637V25.3651H33.0293V18.0805ZM2.64218 25.5278H9.89921L2.64218 32.7739V25.5278ZM10.2043 25.5278H17.4348V32.7735L10.2043 25.5278ZM17.5976 25.5278H25.0891L17.5976 32.777V25.5278ZM25.3754 25.5278H32.8668V32.777L25.3754 25.5278ZM33.0297 25.5278H40.2601L33.0297 32.7735V25.5278ZM40.4867 25.5278H40.4883L47.7836 32.8122H40.4863L40.4867 25.5278ZM40.5652 25.5278H47.8223V32.7739L40.5652 25.5278ZM25.2976 25.5282L32.825 32.8122H25.2976V25.5282ZM9.97342 25.5306V32.8119H2.68084L9.97342 25.5306ZM10.1362 25.536L17.3971 32.8118H10.1362V25.536ZM40.3241 25.5405V32.812H33.0678L40.3241 25.5405ZM25.135 25.5591V32.8119H17.6397L25.135 25.5591Z" fill="#CECECE"/>
<path d="M25.2172 20.1141C25.0762 20.1141 24.9353 20.1678 24.8279 20.2751C24.6209 20.4821 24.6141 20.8135 24.8062 21.0295L11.5925 28.5404L11.6066 28.5642C12.4492 29.9872 13.4782 31.2921 14.7531 32.4405L14.7734 32.4589L14.7915 32.4384L24.8486 21.0724C25.0645 21.2678 25.3984 21.262 25.6066 21.0539C25.8213 20.8391 25.8213 20.4901 25.6066 20.2754C25.4992 20.1681 25.3581 20.1141 25.2172 20.1141ZM25.2172 20.168C25.3441 20.168 25.471 20.2165 25.568 20.3135C25.762 20.5075 25.762 20.8212 25.568 21.0152C25.374 21.2092 25.0602 21.2092 24.8663 21.0152C24.6723 20.8212 24.6723 20.5075 24.8663 20.3135C24.9633 20.2165 25.0902 20.168 25.2172 20.168ZM44.0996 20.3346V20.3888H44.7051V32.4634H44.0996V32.5177H45.3648V32.4634H44.7594V20.3888H45.3648V20.3346H44.0996ZM7.50936 20.5349L7.48223 20.5361H7.48106C7.47188 20.5365 7.46269 20.5369 7.45351 20.5375L7.42798 20.5389V22.1461L7.45796 22.143C7.466 22.1421 7.47415 22.1416 7.48223 22.1415C7.62176 22.1415 7.7344 22.2541 7.7344 22.3936C7.7344 22.5332 7.62188 22.6458 7.48233 22.6458C7.47415 22.6458 7.46589 22.6453 7.45775 22.6445L7.42798 22.6416V24.2491L7.45394 24.2502C7.46311 24.2506 7.47231 24.2509 7.48148 24.2512H7.48224C8.50782 24.2512 9.33982 23.4192 9.33982 22.3936C9.33983 21.3773 8.52216 20.5537 7.50939 20.5388L7.50936 20.5349ZM7.48266 20.5903C8.47871 20.5905 9.28555 21.3975 9.28555 22.3937C9.28557 23.3899 8.47864 24.1969 7.48246 24.197C7.48241 24.197 7.48252 24.197 7.48246 24.197L7.48225 22.7001C7.65116 22.7001 7.78867 22.5626 7.78866 22.3936C7.78866 22.2247 7.65115 22.0872 7.48225 22.0872V20.5904C7.48241 20.5904 7.4825 20.5903 7.48266 20.5903ZM30.9123 20.6651V20.6665C30.3725 20.681 29.9385 21.1227 29.9385 21.666C29.9385 22.2092 30.3725 22.6509 30.9123 22.6654V27.9763C30.9116 27.9763 30.9108 27.9762 30.91 27.9762C30.3575 27.9762 29.9092 28.4246 29.9092 28.9771C29.9092 29.5295 30.3576 29.978 30.91 29.978C31.4625 29.978 31.9109 29.5295 31.9109 28.9771C31.9109 28.4437 31.4926 28.0086 30.9666 27.9791V22.6654C31.5064 22.6509 31.9403 22.2092 31.9403 21.666C31.9403 21.1227 31.5064 20.681 30.9666 20.6665V20.6651L30.9123 20.6651ZM30.9123 20.7208V22.6111C30.4019 22.5967 29.9928 22.1799 29.9928 21.666C29.9928 21.152 30.4019 20.7352 30.9123 20.7208ZM30.9666 20.7208C31.477 20.7352 31.886 21.152 31.886 21.666C31.886 22.1799 31.477 22.5967 30.9666 22.6111V20.7208ZM24.7103 21.1464L14.7697 32.3808C13.5158 31.2472 12.501 29.9615 11.6681 28.5595L24.7103 21.1464ZM12.5674 21.4797V22.7449H12.6216V22.1395H15.186V22.7449H15.2402V21.4797H15.186V22.0852H12.6216V21.4797H12.5674ZM22.2916 26.4426V26.4968H22.8971V30.4301H22.2916V30.4843H23.5568V30.4301H22.9514V26.4968H23.5568V26.4426H22.2916ZM30.91 28.0303C30.9107 28.0303 30.9115 28.0304 30.9123 28.0304V29.9235C30.9115 29.9235 30.9107 29.9236 30.91 29.9236C30.3868 29.9236 29.9634 29.5 29.9634 28.9769C29.9634 28.4538 30.3868 28.0303 30.91 28.0303ZM30.9665 28.0331C31.4631 28.0625 31.8566 28.4728 31.8566 28.9769C31.8566 29.4809 31.4631 29.8913 30.9665 29.9207V28.0331ZM36.1396 28.2033V29.4685H36.1938V28.863H40.8903V29.4685H40.9446V28.2033H40.8903V28.8087H36.1938V28.2033H36.1396Z" fill="#6C6C6C"/>
<path d="M31.6668 17.6219C31.6279 17.6215 31.5893 17.6217 31.5509 17.6223C30.9589 17.6317 29.6907 17.6293 28.555 18.1434C27.4192 18.6575 26.4205 19.7229 26.4205 21.7558C26.4205 22.6151 26.7075 23.3577 27.1575 23.994H18.0907V19.8881H24.0431V17.798H15.6974V19.8881H15.698V23.994H15.6974V26.0842H15.698V30.9499L14.2996 30.9415L12.3645 30.9504L9.33523 26.2441C10.0453 25.9513 10.7402 25.5301 11.275 24.94C11.8567 24.2981 12.2462 23.4594 12.2462 22.4217V22.1232C12.2462 20.6046 11.6671 19.5153 10.7228 18.8208C9.77839 18.1263 8.48656 17.8193 7.05066 17.7866H2.44128V19.9003H2.45307V24.8644H2.4413V26.8375H2.45307V33.0305H4.84588V26.8313L7.25228 26.8245L10.556 32.1991L10.5607 32.2054C10.8404 32.5759 11.4219 33.3985 12.3616 33.9909L12.4412 34.0411L14.3403 33.0395L15.8612 33.0304H24.0425V30.8582H18.0905V26.084H29.8597C29.864 26.086 29.8672 26.0876 29.8719 26.0897C30.601 26.4231 31.4859 26.7247 32.1748 27.1593C32.8637 27.5939 33.3455 28.1315 33.3455 28.9856C33.3455 29.9049 32.9307 30.3863 32.3459 30.6784C31.7612 30.9706 30.9969 31.0429 30.3678 31.0429H30.3667C29.1608 31.0504 27.7424 30.538 26.5312 30.1336L26.317 30.0621V32.3603L26.4123 32.4037C27.6011 32.9457 29.362 33.1572 30.3712 33.1188C31.0951 33.1184 32.4171 32.9767 33.5841 32.3926C34.7527 31.8077 35.7656 30.7482 35.7656 28.9856C35.7656 27.6215 35.2521 26.6435 34.5338 25.9435C33.8154 25.2435 32.9 24.8141 32.0826 24.4956L32.082 24.4954C31.772 24.3759 31.184 24.1411 30.5993 23.8228C30.0156 23.5051 29.4384 23.0988 29.15 22.6728C28.9705 22.3814 28.8598 22.0569 28.8404 21.7503C28.8421 20.8208 29.2753 20.3196 29.8363 20.0239C30.3985 19.7276 31.0987 19.6648 31.5558 19.6978C32.4759 19.7642 34.061 20.2832 34.5679 20.4997L34.7293 20.5686L34.964 19.8792H41.3093V33.0303H43.7021V19.8792H48.0033V17.8074H43.7021V17.7982H41.3093V17.8074H33.041C32.5817 17.6965 32.1201 17.6257 31.6664 17.6216L31.6668 17.6219ZM31.6638 17.9474C32.0934 17.9512 32.5391 18.0187 32.9879 18.1284L33.007 18.1331H41.6355V18.1239H43.3774V18.1331H47.6785V19.5539H43.3774V32.7051H41.6355V19.5539H34.7316L34.5326 20.1387C33.893 19.885 32.519 19.4412 31.58 19.3734C31.0719 19.3367 30.327 19.398 29.6853 19.7362C29.0436 20.0744 28.5152 20.7168 28.5152 21.7557V21.7606L28.5155 21.7656C28.538 22.1381 28.6689 22.5132 28.8758 22.8478L28.8775 22.8506L28.8793 22.8532C29.224 23.3639 29.8384 23.7791 30.4444 24.1089C31.0504 24.4388 31.651 24.6781 31.9654 24.7993C32.7666 25.1115 33.6407 25.5274 34.3072 26.1768C34.9738 26.8264 35.4407 27.7021 35.4407 28.9859C35.4407 30.6264 34.5373 31.5521 33.439 32.1018C32.3407 32.6515 31.0477 32.7938 30.3684 32.7938H30.3652L30.3621 32.7939C29.4415 32.8293 27.7527 32.6213 26.6431 32.1456V30.5144C27.8028 30.9056 29.1454 31.3762 30.3695 31.3686C31.022 31.3686 31.8274 31.3019 32.492 30.9698C33.157 30.6376 33.6716 30.009 33.6716 28.9859C33.6716 28.0055 33.086 27.3491 32.3491 26.8842C31.6122 26.4194 30.7129 26.1163 30.0078 25.794C29.9955 25.7883 29.9812 25.7814 29.9648 25.7739L29.9323 25.7588H17.7655V31.1838H23.7175V32.7051H15.8604L14.2589 32.7146L12.4597 33.6635C11.6327 33.1179 11.1051 32.3862 10.8251 32.0151L7.4341 26.4987L4.52063 26.5067V32.7052H2.77875V26.5122H2.76699V25.19H2.77875V19.5748H2.76699V18.112H7.04355C8.43719 18.1438 9.66371 18.4457 10.5302 19.083C11.3968 19.7202 11.9211 20.6856 11.9211 22.1231V22.4216C11.9211 23.3788 11.5704 24.1295 11.0341 24.7213C10.4979 25.3131 9.7718 25.741 9.0343 26.0201L8.84687 26.091C9.96516 27.8164 11.0748 29.5475 12.1877 31.2765L14.2997 31.2668L16.0238 31.2771V25.7587H16.0232V24.3195H16.0238V19.5624H16.0232V18.1233H23.7181V19.5624H17.7657V24.3195H27.815L27.5966 24.0534C27.0697 23.4116 26.7463 22.6559 26.7463 21.7557C26.7463 19.8264 27.6376 18.9158 28.6894 18.4398C29.7411 17.9638 30.9579 17.9572 31.5562 17.9478C31.5922 17.9472 31.6279 17.9471 31.6638 17.9474ZM4.52044 19.5749V25.1901H6.4956C7.32614 25.1901 8.19931 25.0683 8.88345 24.6562C9.56759 24.2442 10.045 23.5233 10.045 22.4219V22.1234C10.045 21.0083 9.41857 20.3447 8.74181 19.994C8.06505 19.6433 7.34427 19.5751 7.047 19.5751L4.52044 19.5749ZM4.84592 19.9004H7.04698C7.2893 19.9004 7.98612 19.9688 8.5921 20.2828C9.19807 20.5968 9.71952 21.126 9.71952 22.1233V22.4218C9.71952 23.4328 9.31764 24.0146 8.7155 24.3772C8.11335 24.7398 7.29327 24.8645 6.49557 24.8645H4.84589L4.84592 19.9004Z" fill="#7F2D2D"/>
<path d="M4.71642 11.0996C4.70204 11.0996 4.68824 11.1053 4.67807 11.1155C4.6679 11.1257 4.66218 11.1395 4.66218 11.1539V12.2259C4.66218 12.2835 4.66577 12.3562 4.67267 12.445C4.6756 12.4825 4.67854 12.5033 4.68146 12.5342C4.63874 12.4856 4.60006 12.434 4.54701 12.3932C4.46122 12.3255 4.35977 12.2722 4.24367 12.2331C4.12555 12.1933 3.98974 12.1741 3.8364 12.1741C3.47194 12.1741 3.17152 12.299 2.94949 12.5462C2.72561 12.7937 2.61743 13.1561 2.61743 13.6251C2.61743 14.0891 2.72297 14.4475 2.94175 14.6919C2.94172 14.6919 2.94179 14.692 2.94175 14.6919C3.1607 14.9345 3.46127 15.0566 3.82877 15.0566C3.98545 15.0566 4.12287 15.0374 4.24116 14.9976C4.2413 14.9976 4.24144 14.9975 4.24159 14.9975C4.35934 14.9567 4.46165 14.9018 4.54747 14.8324C4.60724 14.785 4.65066 14.7282 4.69623 14.6727L4.74508 14.9626C4.74721 14.9753 4.75375 14.9868 4.76355 14.995C4.77334 15.0033 4.78576 15.0079 4.79859 15.0079H5.1424C5.15679 15.0079 5.17059 15.0022 5.18076 14.992C5.19093 14.9818 5.19665 14.968 5.19665 14.9536V11.1539C5.19665 11.1395 5.19093 11.1257 5.18076 11.1155C5.17059 11.1053 5.15679 11.0996 5.1424 11.0996L4.71642 11.0996ZM6.32373 11.2218C6.2394 11.2218 6.16267 11.2486 6.10313 11.3013C6.04078 11.3565 6.01297 11.4415 6.01297 11.5422C6.01297 11.6414 6.04097 11.726 6.1024 11.7824C6.1026 11.7826 6.10281 11.7828 6.10302 11.783C6.16256 11.8358 6.23936 11.8627 6.32372 11.8627C6.40497 11.8627 6.47979 11.8354 6.5388 11.7833C6.60373 11.7275 6.63458 11.6419 6.63458 11.5422C6.63458 11.4411 6.60388 11.3552 6.53827 11.3007C6.47933 11.2489 6.40477 11.2218 6.32373 11.2218ZM14.8272 12.1192C14.5957 12.1192 14.3956 12.1559 14.2278 12.2315C14.0603 12.3069 13.9291 12.4189 13.8395 12.5649C13.7497 12.7099 13.7057 12.8843 13.7057 13.0843C13.7057 13.2741 13.7539 13.4445 13.8507 13.5904C13.8508 13.5907 13.851 13.5909 13.8511 13.5911C13.9303 13.707 14.0352 13.7897 14.1536 13.8521C14.0696 13.9083 13.9975 13.9666 13.948 14.0302C13.948 14.0303 13.9481 14.0302 13.948 14.0302C13.8845 14.1127 13.8519 14.2118 13.8519 14.3199C13.8519 14.4155 13.8821 14.504 13.9405 14.5781C13.9407 14.5783 13.9409 14.5785 13.9411 14.5787C13.9719 14.6166 14.0068 14.6491 14.0446 14.6773C13.8948 14.7238 13.7628 14.7894 13.6667 14.8906C13.6666 14.8907 13.6665 14.8908 13.6664 14.8909C13.5465 15.019 13.485 15.178 13.485 15.3577C13.485 15.609 13.5971 15.814 13.8096 15.9524C13.8095 15.9524 13.8096 15.9525 13.8096 15.9524C14.0225 16.0926 14.3181 16.1592 14.6938 16.1592C15.1787 16.1592 15.5545 16.0802 15.8206 15.9142C16.0867 15.7482 16.2258 15.4986 16.2258 15.1868C16.2258 14.9398 16.1354 14.7406 15.9579 14.6087C15.7824 14.4768 15.5356 14.4147 15.2223 14.4147H14.7271C14.6411 14.4147 14.5687 14.4083 14.5104 14.3963C14.454 14.3832 14.4147 14.3635 14.3897 14.3411C14.3685 14.3208 14.358 14.297 14.358 14.2565C14.358 14.1977 14.3747 14.1498 14.41 14.1052C14.4463 14.0615 14.5033 14.0193 14.5758 13.9798C14.6521 13.9908 14.7277 13.9981 14.8015 13.9981C15.1419 13.9981 15.4166 13.9174 15.6184 13.7513C15.6183 13.7513 15.6185 13.7512 15.6184 13.7513C15.8198 13.5838 15.923 13.352 15.923 13.0721C15.923 12.9574 15.905 12.8512 15.8682 12.7548C15.8438 12.691 15.8086 12.6413 15.7753 12.5891L16.2138 12.5374C16.227 12.5358 16.2391 12.5295 16.2479 12.5196C16.2568 12.5096 16.2617 12.4968 16.2617 12.4835V12.2223C16.2617 12.2079 16.256 12.1941 16.2458 12.1839C16.2356 12.1738 16.2218 12.168 16.2074 12.168H15.2478C15.2129 12.1586 15.1747 12.1505 15.1308 12.1443C15.0828 12.1359 15.0323 12.1301 14.9795 12.1267C14.9289 12.1218 14.878 12.1192 14.8272 12.1192ZM8.60927 12.1289C8.42359 12.1289 8.24608 12.1515 8.07709 12.1968C7.91011 12.2415 7.76145 12.2955 7.63115 12.3592C7.61868 12.3653 7.60903 12.3759 7.60418 12.389C7.59933 12.402 7.59966 12.4163 7.60508 12.4291L7.73583 12.7368C7.73867 12.7435 7.74282 12.7495 7.74804 12.7546C7.75326 12.7596 7.75945 12.7636 7.76623 12.7662C7.77301 12.7688 7.78024 12.7701 7.78751 12.7698C7.79477 12.7696 7.80191 12.7679 7.80851 12.7649C7.92588 12.7106 8.05008 12.6634 8.18126 12.6234C8.30934 12.5844 8.44411 12.5647 8.58622 12.5647C8.76724 12.5647 8.89936 12.6082 8.99149 12.6902C9.0791 12.7681 9.12976 12.9126 9.12976 13.1356V13.2471L8.69694 13.2645C8.2369 13.2778 7.8896 13.3556 7.65386 13.5075C7.41861 13.6591 7.29542 13.8865 7.29542 14.1686C7.29542 14.3537 7.33486 14.5115 7.41705 14.6377C7.41716 14.6379 7.41727 14.6381 7.41738 14.6382C7.49999 14.7623 7.61366 14.856 7.7541 14.9168C7.75402 14.9168 7.75417 14.9168 7.7541 14.9168C7.89522 14.9771 8.05521 15.0066 8.23228 15.0066C8.39839 15.0066 8.53998 14.9902 8.65799 14.9557C8.65813 14.9556 8.65827 14.9556 8.65842 14.9556C8.77681 14.9197 8.88217 14.8671 8.9732 14.7978C8.97338 14.7977 8.97357 14.7975 8.97375 14.7974C9.04268 14.7436 9.10689 14.6724 9.17082 14.6002L9.23619 14.9147C9.23872 14.9269 9.24538 14.9378 9.25505 14.9457C9.26472 14.9536 9.2768 14.9579 9.28927 14.9579H9.59971C9.6141 14.9579 9.62789 14.9522 9.63807 14.942C9.64824 14.9318 9.65396 14.918 9.65396 14.9037V13.0844C9.65396 12.7608 9.56918 12.5138 9.39194 12.3575C9.21557 12.202 8.95224 12.1289 8.60927 12.1289ZM11.8803 12.1741C11.7489 12.1741 11.6231 12.192 11.5033 12.2277C11.3835 12.2618 11.2744 12.3131 11.177 12.3817C11.1062 12.4305 11.0472 12.4913 10.9941 12.5574L10.9461 12.2684C10.944 12.2557 10.9375 12.2442 10.9277 12.2359C10.9179 12.2276 10.9055 12.223 10.8926 12.223H10.5488C10.5344 12.223 10.5206 12.2288 10.5105 12.2389C10.5003 12.2491 10.4946 12.2629 10.4946 12.2773V14.9536C10.4946 14.968 10.5003 14.9818 10.5105 14.992C10.5206 15.0022 10.5344 15.0079 10.5488 15.0079H10.9748C10.9891 15.0079 11.0029 15.0022 11.0131 14.992C11.0233 14.9818 11.029 14.968 11.029 14.9536V13.5519C11.029 13.24 11.0913 13.009 11.2079 12.8545C11.3215 12.7039 11.5198 12.6245 11.8213 12.6245C12.0329 12.6245 12.1791 12.6766 12.2721 12.7738C12.2723 12.7739 12.2724 12.774 12.2725 12.7741C12.3675 12.8718 12.4188 13.0226 12.4188 13.2369V14.9537C12.4188 14.9681 12.4245 14.9819 12.4347 14.992C12.4449 15.0022 12.4587 15.0079 12.473 15.0079H12.8938C12.9082 15.0079 12.922 15.0022 12.9321 14.992C12.9423 14.9819 12.948 14.9681 12.948 14.9537V13.2101C12.948 12.8578 12.8595 12.5909 12.6738 12.4228C12.4898 12.2547 12.2222 12.1741 11.8803 12.1741ZM17.9463 12.1792C17.6705 12.1792 17.4288 12.2354 17.2246 12.3496C17.0221 12.4623 16.865 12.6285 16.7563 12.8438C16.6472 13.0582 16.5939 13.316 16.5939 13.6155C16.5939 13.8403 16.6254 14.0428 16.6894 14.2223C16.6894 14.2224 16.6895 14.2225 16.6895 14.2227C16.755 14.4013 16.847 14.5538 16.9654 14.6785C16.9653 14.6784 16.9655 14.6786 16.9654 14.6785C17.0852 14.8027 17.2273 14.8987 17.3897 14.9649C17.3899 14.965 17.3901 14.9651 17.3903 14.9652C17.5545 15.0298 17.7343 15.0617 17.9284 15.0617C18.1358 15.0617 18.3231 15.0299 18.4894 14.9652C18.4893 14.9653 18.4895 14.9652 18.4894 14.9652C18.6569 14.8991 18.8011 14.8032 18.9195 14.6785C19.0381 14.5536 19.1286 14.4008 19.1906 14.2219C19.2528 14.0426 19.2833 13.8402 19.2833 13.6155C19.2833 13.3174 19.2282 13.06 19.1155 12.8455C19.0051 12.6306 18.8474 12.4639 18.6453 12.3498C18.4447 12.2356 18.2106 12.1792 17.9463 12.1792ZM6.10572 12.223C6.09133 12.223 6.07754 12.2287 6.06736 12.2389C6.05719 12.2491 6.05148 12.2629 6.05147 12.2773V15.3858C6.05147 15.5406 6.0166 15.6351 5.96258 15.6816C5.90172 15.7341 5.8224 15.7613 5.71571 15.7613C5.64987 15.7613 5.59144 15.7566 5.54057 15.7476C5.54004 15.7474 5.53951 15.7473 5.53897 15.7472C5.4869 15.7395 5.43565 15.728 5.38523 15.7125C5.37713 15.71 5.36855 15.7094 5.36019 15.7109C5.35183 15.7123 5.34393 15.7157 5.33711 15.7207C5.33029 15.7258 5.32474 15.7323 5.32092 15.7399C5.3171 15.7475 5.3151 15.7558 5.31509 15.7643V16.094C5.31511 16.1053 5.31866 16.1164 5.32525 16.1256C5.33185 16.1347 5.34115 16.1417 5.35186 16.1453C5.40299 16.1627 5.46199 16.1771 5.5288 16.1888C5.59826 16.2027 5.67747 16.2093 5.76709 16.2093C5.94796 16.2093 6.10095 16.1773 6.22416 16.1098C6.34638 16.0428 6.43933 15.9436 6.49858 15.8168C6.5575 15.6924 6.58588 15.5449 6.58588 15.3761V12.2773C6.58588 12.2629 6.58016 12.2491 6.56999 12.2389C6.55982 12.2288 6.54602 12.223 6.53163 12.223L6.10572 12.223ZM14.812 12.5281C15.0065 12.5281 15.1443 12.5755 15.236 12.6642C15.2361 12.6643 15.2362 12.6644 15.2363 12.6645C15.3275 12.7513 15.376 12.8838 15.376 13.0746C15.376 13.2519 15.3289 13.3768 15.2389 13.4626C15.1492 13.5479 15.0119 13.5942 14.8171 13.5942C14.6294 13.5942 14.4935 13.5484 14.3997 13.462C14.3061 13.3758 14.2582 13.2537 14.2582 13.0819C14.2582 12.8928 14.3066 12.7591 14.3985 12.6688C14.4926 12.5762 14.6267 12.5281 14.812 12.5281ZM3.89556 12.6196C4.19803 12.6196 4.39041 12.7043 4.49654 12.8683C4.49661 12.8684 4.49669 12.8685 4.49676 12.8686C4.60799 13.038 4.66745 13.2889 4.66745 13.6228V13.696C4.66745 14.0097 4.60584 14.239 4.49146 14.3882C4.37942 14.5343 4.18683 14.6111 3.8956 14.6111C3.64464 14.6111 3.46939 14.5301 3.34962 14.3653C3.23064 14.199 3.16738 13.9566 3.16738 13.635C3.16738 13.3116 3.23115 13.0625 3.3529 12.8841C3.35286 12.8842 3.35294 12.884 3.3529 12.8841C3.47342 12.706 3.64715 12.6196 3.89556 12.6196ZM17.9362 12.6295C18.1269 12.6295 18.2769 12.6699 18.3907 12.7471C18.5061 12.8253 18.591 12.9355 18.6475 13.083C18.6475 13.083 18.6476 13.0831 18.6475 13.083C18.7044 13.2299 18.7338 13.4073 18.7338 13.6155C18.7338 13.8253 18.7044 14.0052 18.6474 14.1555C18.5909 14.3046 18.5052 14.4164 18.3881 14.4962C18.388 14.4963 18.3882 14.4962 18.3881 14.4962C18.2741 14.575 18.1258 14.6162 17.9388 14.6162C17.7501 14.6162 17.6012 14.5751 17.4873 14.4964C17.3718 14.4167 17.2867 14.3048 17.2301 14.1555C17.1732 14.0052 17.1439 13.8253 17.1439 13.6155C17.1439 13.2975 17.2099 13.0552 17.3359 12.8835C17.3359 12.8835 17.336 12.8833 17.3361 12.8832C17.4619 12.7143 17.6553 12.6295 17.9362 12.6295ZM9.12447 13.6413V13.8316C9.12447 14.0844 9.05085 14.2626 8.90547 14.3832C8.75714 14.5061 8.56714 14.5685 8.32695 14.5685C8.1744 14.5685 8.05814 14.5342 7.97211 14.4695C7.88913 14.4072 7.84751 14.3149 7.84751 14.1734C7.84751 14.0124 7.90801 13.8983 8.03897 13.8107C8.16663 13.7254 8.40628 13.6691 8.75225 13.6562C8.75222 13.6562 8.75229 13.6562 8.75225 13.6562L9.12447 13.6413ZM14.5885 14.9016H15.076C15.2172 14.9016 15.3355 14.9114 15.4298 14.93C15.4301 14.93 15.4304 14.9301 15.4307 14.9301C15.522 14.9466 15.5853 14.9783 15.6266 15.0214C15.6658 15.064 15.6888 15.1297 15.6888 15.2283C15.6888 15.3318 15.6563 15.4156 15.5879 15.4894C15.5876 15.4897 15.5873 15.49 15.587 15.4903C15.5209 15.5647 15.4162 15.625 15.2689 15.667C15.2687 15.6671 15.2685 15.6672 15.2682 15.6672C15.1233 15.7106 14.9357 15.7334 14.7066 15.7334C14.4747 15.7334 14.3009 15.6951 14.1853 15.6261C14.1852 15.6261 14.185 15.626 14.1849 15.6259C14.0698 15.5587 14.0194 15.472 14.0194 15.3431C14.0194 15.2424 14.0418 15.1631 14.0842 15.1003C14.1291 15.0364 14.1918 14.9881 14.2776 14.954C14.3639 14.9196 14.4673 14.9016 14.5885 14.9016ZM21.6667 34.9649C21.4688 34.9649 21.2976 34.9993 21.1549 35.0707C21.0112 35.1426 20.9001 35.2567 20.8254 35.4075C20.7501 35.5578 20.7145 35.7485 20.7145 35.9788V36.1156L20.257 36.239C20.2454 36.2421 20.2352 36.2489 20.228 36.2584C20.2207 36.2679 20.2168 36.2795 20.2168 36.2914V36.4867C20.2168 36.5011 20.2225 36.5149 20.2327 36.5251C20.2429 36.5352 20.2567 36.5409 20.271 36.5409H20.7144V38.8456C20.7144 38.86 20.7202 38.8738 20.7303 38.884C20.7405 38.8942 20.7543 38.8999 20.7687 38.8999H21.1946C21.209 38.8999 21.2228 38.8942 21.233 38.884C21.2432 38.8738 21.2489 38.86 21.2489 38.8456V36.5409H21.895C21.9093 36.5409 21.9231 36.5352 21.9333 36.5251C21.9435 36.5149 21.9492 36.5011 21.9492 36.4867V36.1693C21.9492 36.1549 21.9435 36.1411 21.9333 36.1309C21.9231 36.1207 21.9093 36.115 21.895 36.115H21.2489V35.9739C21.2489 35.7672 21.2874 35.6228 21.3528 35.5383C21.4203 35.4518 21.5206 35.4079 21.6718 35.4079C21.7432 35.4079 21.8126 35.4155 21.8805 35.4309C21.8809 35.431 21.8814 35.4311 21.8818 35.4312C21.9539 35.4455 22.018 35.4615 22.074 35.4788C22.0875 35.4829 22.102 35.4817 22.1146 35.4753C22.1271 35.469 22.1367 35.458 22.1413 35.4447L22.2516 35.1247C22.2539 35.1179 22.2549 35.1107 22.2544 35.1036C22.254 35.0964 22.2521 35.0895 22.2489 35.083C22.2458 35.0766 22.2414 35.0709 22.236 35.0662C22.2306 35.0615 22.2243 35.0579 22.2175 35.0556C22.1464 35.0319 22.0647 35.011 21.9724 34.9928C21.8793 34.974 21.7774 34.9649 21.6667 34.9649ZM45.5366 34.9917C45.5222 34.9917 45.5084 34.9974 45.4982 35.0076C45.4881 35.0178 45.4823 35.0316 45.4823 35.0459V38.8456C45.4823 38.86 45.4881 38.8738 45.4982 38.8839C45.5084 38.8941 45.5222 38.8998 45.5366 38.8998H45.96C45.9744 38.8998 45.9882 38.8941 45.9983 38.8839C46.0085 38.8738 46.0142 38.86 46.0142 38.8456V37.9008L46.2937 37.6567L47.2513 38.8791C47.2564 38.8856 47.2629 38.8908 47.2703 38.8944C47.2777 38.898 47.2858 38.8999 47.294 38.8999H47.8071C47.8173 38.8999 47.8273 38.897 47.836 38.8916C47.8446 38.8862 47.8516 38.8784 47.856 38.8693C47.8605 38.8601 47.8622 38.8498 47.8611 38.8397C47.86 38.8295 47.8561 38.8199 47.8497 38.8119L46.666 37.3161L47.7636 36.2074C47.7711 36.1998 47.7762 36.1901 47.7783 36.1796C47.7803 36.1691 47.7792 36.1583 47.7751 36.1484C47.771 36.1385 47.764 36.1301 47.7551 36.1241C47.7462 36.1182 47.7357 36.115 47.725 36.115H47.2247C47.2175 36.115 47.2104 36.1165 47.2038 36.1193C47.1971 36.122 47.1911 36.1261 47.1861 36.1312L46.2522 37.0787C46.2519 37.0789 46.2517 37.0792 46.2514 37.0794C46.2024 37.1311 46.1428 37.1985 46.0722 37.282C46.0721 37.2822 46.072 37.2824 46.0718 37.2825C46.0407 37.3203 46.0251 37.3386 46.0008 37.3679C46.0027 37.3318 46.0039 37.3015 46.0063 37.2614C46.0063 37.2613 46.0063 37.2614 46.0063 37.2614C46.0114 37.1663 46.0141 37.0856 46.0141 37.019V35.046C46.0141 35.0316 46.0084 35.0178 45.9982 35.0076C45.988 34.9975 45.9743 34.9917 45.9599 34.9917L45.5366 34.9917ZM33.8503 36.0161C33.5906 36.0161 33.3608 36.0755 33.1652 36.1951C33.1651 36.1951 33.1652 36.1951 33.1652 36.1951C32.9715 36.3146 32.8201 36.4864 32.7136 36.7061C32.7136 36.7061 32.7136 36.7061 32.7136 36.7061C32.6085 36.9248 32.5568 37.1824 32.5568 37.4769C32.5568 37.7784 32.6138 38.037 32.7302 38.2502C32.8461 38.4622 33.0103 38.6256 33.2194 38.7362C33.2196 38.7363 33.2197 38.7363 33.2198 38.7364C33.4304 38.8451 33.6756 38.8987 33.9528 38.8987C34.1453 38.8987 34.3128 38.8848 34.456 38.8562C34.6002 38.8278 34.7448 38.7826 34.89 38.721C34.8998 38.7169 34.9081 38.7099 34.914 38.701C34.9199 38.6921 34.923 38.6817 34.923 38.671V38.3146C34.923 38.3057 34.9208 38.2969 34.9166 38.2891C34.9125 38.2812 34.9064 38.2745 34.899 38.2695C34.8916 38.2646 34.8831 38.2615 34.8743 38.2606C34.8654 38.2597 34.8565 38.261 34.8482 38.2644C34.7036 38.3236 34.5644 38.3682 34.4309 38.3984C34.299 38.4282 34.1456 38.4434 33.9708 38.4434C33.6921 38.4434 33.4853 38.3659 33.3377 38.2133C33.1999 38.0709 33.1247 37.8631 33.1111 37.5873H34.9944C35.0088 37.5873 35.0226 37.5816 35.0328 37.5714C35.043 37.5613 35.0487 37.5475 35.0487 37.5331V37.2816C35.0487 37.0322 35.002 36.8117 34.907 36.6223C34.8121 36.4314 34.6732 36.2812 34.4935 36.1751C34.3129 36.0686 34.0973 36.0161 33.8503 36.0161ZM41.1936 36.0161C40.9177 36.0161 40.676 36.0724 40.4717 36.1866C40.2692 36.2992 40.1121 36.4654 40.0034 36.6808C39.8944 36.8952 39.8411 37.1531 39.8411 37.4526C39.8411 37.6774 39.8727 37.8799 39.9367 38.0594C39.9367 38.0595 39.9367 38.0596 39.9368 38.0598C40.0023 38.2384 40.0942 38.3908 40.2127 38.5155C40.2127 38.5156 40.2128 38.5157 40.2129 38.5158C40.3327 38.64 40.4746 38.7357 40.6369 38.8019C40.6372 38.802 40.6374 38.802 40.6377 38.8021C40.8019 38.8667 40.9816 38.8987 41.1757 38.8987C41.3831 38.8987 41.5705 38.8669 41.7368 38.8022C41.7367 38.8022 41.7368 38.8022 41.7368 38.8022C41.9043 38.7361 42.0485 38.6402 42.1669 38.5155C42.2856 38.3906 42.3759 38.2377 42.438 38.0589C42.5002 37.8796 42.5308 37.6773 42.5308 37.4526C42.5308 37.1545 42.4755 36.8971 42.3628 36.6826C42.2525 36.4677 42.0949 36.301 41.8927 36.1869C41.6921 36.0727 41.4578 36.0161 41.1936 36.0161ZM25.9213 36.021C25.7357 36.021 25.5581 36.0436 25.389 36.0888C25.2221 36.1335 25.0734 36.1875 24.9431 36.2512C24.9306 36.2573 24.9209 36.2679 24.9161 36.281C24.9112 36.294 24.9116 36.3084 24.917 36.3212L25.0479 36.6289C25.0507 36.6356 25.0549 36.6416 25.0601 36.6466C25.0654 36.6517 25.0715 36.6556 25.0783 36.6582C25.0851 36.6608 25.0923 36.6621 25.0996 36.6618C25.1068 36.6616 25.114 36.6599 25.1206 36.6568C25.238 36.6026 25.362 36.5554 25.4932 36.5154C25.6213 36.4763 25.7562 36.4567 25.8982 36.4567C26.0793 36.4567 26.2114 36.5003 26.3035 36.5823C26.3911 36.6602 26.4418 36.8047 26.4418 37.0277V37.1391L26.0089 37.1566L26.0095 37.1565C25.5491 37.1697 25.2016 37.2476 24.9657 37.3996C24.7305 37.5511 24.6073 37.7785 24.6073 38.0605C24.6073 38.2456 24.6469 38.4035 24.729 38.5297C24.7291 38.5298 24.7293 38.53 24.7294 38.5302C24.812 38.6542 24.9255 38.748 25.066 38.8088C25.0659 38.8087 25.066 38.8088 25.066 38.8088C25.2071 38.869 25.3671 38.8987 25.5442 38.8987C25.7103 38.8987 25.8519 38.8822 25.9699 38.8476C25.97 38.8476 25.9701 38.8476 25.9703 38.8475C26.0887 38.8117 26.194 38.7591 26.2851 38.6898C26.2853 38.6897 26.2854 38.6896 26.2856 38.6894C26.3546 38.6356 26.4188 38.5643 26.4828 38.4921L26.5481 38.8066C26.5506 38.8188 26.5573 38.8298 26.5669 38.8377C26.5766 38.8455 26.5887 38.8499 26.6012 38.8499H26.9116C26.926 38.8499 26.9398 38.8441 26.9499 38.834C26.9601 38.8238 26.9658 38.81 26.9658 38.7956V36.9763C26.9658 36.6528 26.8811 36.4058 26.7038 36.2495C26.5275 36.094 26.2643 36.021 25.9213 36.021ZM23.9049 36.0662C23.7648 36.0662 23.6354 36.092 23.5185 36.1441C23.5184 36.1442 23.5185 36.1441 23.5185 36.1441C23.4051 36.1955 23.3043 36.2654 23.2177 36.3529C23.2176 36.3529 23.2177 36.3528 23.2177 36.3529C23.1604 36.4096 23.1168 36.4771 23.0707 36.5423L23.0353 36.1642C23.034 36.1507 23.0278 36.1382 23.0178 36.1291C23.0078 36.12 22.9948 36.115 22.9813 36.115H22.6273C22.6129 36.115 22.5991 36.1207 22.5889 36.1309C22.5788 36.1411 22.573 36.1549 22.573 36.1693V38.8456C22.573 38.86 22.5788 38.8738 22.5889 38.884C22.5991 38.8942 22.6129 38.8999 22.6273 38.8999H23.0556C23.07 38.8999 23.0838 38.8942 23.094 38.884C23.1042 38.8738 23.1099 38.86 23.1099 38.8456V37.4098C23.1099 37.277 23.1305 37.1585 23.1706 37.053C23.1706 37.053 23.1706 37.0531 23.1706 37.053C23.2111 36.945 23.2664 36.8544 23.3363 36.7803C23.3365 36.7802 23.3366 36.78 23.3367 36.7799C23.4071 36.7037 23.4876 36.6467 23.5798 36.6074C23.5797 36.6074 23.5799 36.6073 23.5798 36.6074C23.6739 36.5664 23.7734 36.5458 23.8792 36.5458C23.9264 36.5458 23.9775 36.5489 24.0321 36.5552C24.0867 36.5615 24.1357 36.5701 24.1792 36.5809C24.1865 36.5827 24.1942 36.583 24.2017 36.5816C24.2092 36.5803 24.2163 36.5774 24.2226 36.5732C24.2288 36.569 24.2342 36.5634 24.2382 36.557C24.2422 36.5506 24.2449 36.5434 24.2459 36.5359L24.2999 36.1598C24.3018 36.1461 24.2985 36.1322 24.2905 36.1208C24.2825 36.1095 24.2705 36.1017 24.2569 36.0989C24.2064 36.0886 24.1496 36.081 24.0865 36.076C24.0237 36.0694 23.9629 36.0662 23.9049 36.0662ZM29.0892 36.0662C28.9646 36.0662 28.8462 36.0831 28.7346 36.1173C28.623 36.1516 28.5214 36.2024 28.4308 36.2697C28.3665 36.3175 28.3126 36.376 28.2638 36.4393L28.2165 36.1601C28.2144 36.1475 28.2078 36.1361 28.198 36.1278C28.1882 36.1195 28.1758 36.115 28.163 36.115H27.8193C27.8049 36.115 27.7911 36.1207 27.7809 36.1309C27.7708 36.1411 27.765 36.1549 27.765 36.1693V38.8456C27.765 38.86 27.7708 38.8738 27.7809 38.884C27.7911 38.8941 27.8049 38.8999 27.8193 38.8999H28.2451C28.2595 38.8999 28.2733 38.8941 28.2835 38.884C28.2936 38.8738 28.2994 38.86 28.2994 38.8456V37.4293C28.2994 37.2237 28.3238 37.053 28.3707 36.9175C28.3706 36.9175 28.3707 36.9174 28.3707 36.9175C28.4188 36.7819 28.4931 36.684 28.5954 36.6176C28.6968 36.5518 28.8354 36.5166 29.0148 36.5166C29.1398 36.5166 29.2387 36.5398 29.3138 36.5827C29.3141 36.5829 29.3145 36.583 29.3148 36.5832C29.3918 36.6249 29.4475 36.6859 29.486 36.7725C29.4861 36.7727 29.4862 36.773 29.4864 36.7732C29.5265 36.8598 29.5481 36.9725 29.5481 37.1118V38.8456C29.5481 38.86 29.5538 38.8738 29.564 38.884C29.5742 38.8941 29.588 38.8999 29.6024 38.8999H30.0256C30.04 38.8999 30.0538 38.8941 30.064 38.884C30.0742 38.8738 30.0799 38.86 30.0799 38.8456V37.3486C30.0799 37.0648 30.14 36.8578 30.2522 36.7214C30.3629 36.5868 30.541 36.5166 30.803 36.5166C30.9861 36.5166 31.113 36.5663 31.1987 36.6621C31.1989 36.6623 31.1991 36.6625 31.1993 36.6627C31.2862 36.7568 31.3337 36.9036 31.3337 37.1118V38.8456C31.3337 38.86 31.3395 38.8738 31.3496 38.884C31.3598 38.8941 31.3736 38.8999 31.388 38.8999H31.8087C31.8231 38.8999 31.8369 38.8941 31.8471 38.884C31.8572 38.8738 31.863 38.86 31.863 38.8456V37.0923C31.863 36.7438 31.7823 36.4807 31.6107 36.3137C31.4407 36.1466 31.1909 36.0662 30.8723 36.0662C30.6737 36.0662 30.4891 36.106 30.3209 36.186C30.3209 36.186 30.321 36.1859 30.3209 36.186C30.3209 36.186 30.3206 36.1861 30.3205 36.1862C30.1696 36.2566 30.0504 36.3669 29.9564 36.5038C29.8857 36.3682 29.7867 36.2573 29.6504 36.1871C29.4969 36.1055 29.3092 36.0662 29.0892 36.0662ZM44.4611 36.0662C44.3211 36.0662 44.1917 36.092 44.0747 36.1441C44.0746 36.1442 44.0748 36.1441 44.0747 36.1441C43.9613 36.1955 43.8605 36.2654 43.7739 36.3529C43.7738 36.3529 43.774 36.3528 43.7739 36.3529C43.7167 36.4096 43.673 36.477 43.6269 36.5422L43.5916 36.1642C43.5903 36.1507 43.584 36.1382 43.574 36.1291C43.5641 36.12 43.551 36.115 43.5375 36.115H43.1834C43.169 36.115 43.1552 36.1207 43.1451 36.1309C43.1349 36.1411 43.1292 36.1549 43.1292 36.1693V38.8456C43.1292 38.86 43.1349 38.8738 43.1451 38.884C43.1552 38.8942 43.169 38.8999 43.1834 38.8999H43.6119C43.6263 38.8999 43.6401 38.8942 43.6503 38.884C43.6604 38.8738 43.6661 38.86 43.6661 38.8456V37.4098C43.6661 37.277 43.6867 37.1585 43.7269 37.053C43.7269 37.053 43.7269 37.0531 43.7269 37.053C43.7674 36.9449 43.8226 36.8544 43.8925 36.7803C43.8926 36.7802 43.8927 36.78 43.8928 36.7799C43.9632 36.7038 44.0438 36.6467 44.136 36.6074C44.1359 36.6074 44.1361 36.6073 44.136 36.6074C44.2301 36.5664 44.3296 36.5458 44.4354 36.5458C44.4827 36.5458 44.5336 36.5489 44.5882 36.5552C44.6428 36.5615 44.6919 36.5702 44.7354 36.5809C44.7428 36.5827 44.7504 36.583 44.7579 36.5816C44.7654 36.5803 44.7725 36.5774 44.7788 36.5732C44.7851 36.569 44.7904 36.5634 44.7944 36.557C44.7984 36.5506 44.8011 36.5434 44.8021 36.5359L44.8561 36.1598C44.8581 36.1461 44.8547 36.1322 44.8467 36.1208C44.8388 36.1095 44.8267 36.1017 44.8132 36.0989C44.7626 36.0886 44.7059 36.081 44.6427 36.076C44.5799 36.0694 44.5191 36.0662 44.4611 36.0662ZM35.4978 36.1151C35.4894 36.1151 35.4811 36.1171 35.4736 36.1208C35.4661 36.1246 35.4595 36.13 35.4545 36.1367C35.4494 36.1435 35.446 36.1513 35.4445 36.1595C35.443 36.1678 35.4434 36.1763 35.4457 36.1844L36.2205 38.8608C36.2238 38.8721 36.2307 38.882 36.2401 38.8891C36.2495 38.8962 36.2609 38.9 36.2727 38.9H36.7524C36.7638 38.9 36.7748 38.8964 36.7841 38.8898C36.7933 38.8832 36.8002 38.8738 36.8038 38.8631L37.3269 37.3135C37.3512 37.2458 37.373 37.1785 37.3921 37.1123C37.3921 37.1122 37.3922 37.1121 37.3922 37.1119C37.411 37.0453 37.428 36.9819 37.4435 36.9216L37.4438 36.9203C37.4553 36.8796 37.4641 36.8441 37.4734 36.8076C37.483 36.844 37.4925 36.8793 37.5029 36.9203C37.5031 36.9209 37.5033 36.9215 37.5035 36.9221C37.5206 36.9806 37.5385 37.0424 37.5573 37.1075C37.5575 37.108 37.5576 37.1085 37.5578 37.1091C37.5784 37.1727 37.5998 37.238 37.622 37.3049L38.1222 38.8624C38.1258 38.8733 38.1326 38.8828 38.1419 38.8896C38.1512 38.8963 38.1624 38.9 38.1738 38.9H38.6689C38.6807 38.9 38.6921 38.8962 38.7015 38.8891C38.7109 38.8821 38.7178 38.8722 38.7211 38.8609L39.4985 36.1845C39.5008 36.1764 39.5012 36.1679 39.4997 36.1596C39.4982 36.1513 39.4948 36.1435 39.4897 36.1368C39.4847 36.1301 39.4781 36.1246 39.4706 36.1208C39.4631 36.1171 39.4548 36.1151 39.4463 36.1151H39.0128C39.0009 36.1151 38.9894 36.119 38.98 36.1262C38.9705 36.1334 38.9637 36.1434 38.9605 36.1549L38.5501 37.6322C38.55 37.6323 38.5501 37.6321 38.5501 37.6322C38.5227 37.7333 38.496 37.8331 38.4703 37.9309C38.4702 37.9312 38.4701 37.9315 38.4701 37.9318C38.4468 38.0265 38.4262 38.1129 38.4078 38.1924C38.3873 38.1129 38.3644 38.0311 38.3389 37.9469L38.3386 37.946C38.3146 37.8611 38.2896 37.7794 38.2639 37.7009L37.7636 36.1526C37.76 36.1417 37.7531 36.1322 37.7439 36.1255C37.7346 36.1188 37.7234 36.1151 37.712 36.1151H37.2528C37.2414 36.1151 37.2303 36.1187 37.2211 36.1254C37.2118 36.132 37.2049 36.1414 37.2013 36.1522L36.6831 37.7028C36.6831 37.7028 36.6831 37.7029 36.6831 37.7028C36.6641 37.7605 36.645 37.8223 36.626 37.888C36.6071 37.952 36.589 38.0167 36.5718 38.0823C36.5716 38.0826 36.5715 38.083 36.5714 38.0833C36.5608 38.1273 36.5512 38.1676 36.5413 38.2084C36.5401 38.2031 36.5398 38.1995 36.5386 38.194C36.5213 38.1087 36.4998 38.0188 36.4742 37.9242L36.4738 37.9231C36.4499 37.827 36.4243 37.7301 36.3969 37.6324L35.9915 36.155C35.9884 36.1435 35.9815 36.1334 35.9721 36.1262C35.9626 36.119 35.9511 36.1151 35.9392 36.1151L35.4978 36.1151ZM33.8452 36.4567C33.9983 36.4567 34.1184 36.4891 34.2102 36.5503C34.2104 36.5504 34.2105 36.5505 34.2107 36.5506C34.304 36.6113 34.3725 36.6956 34.4185 36.8088C34.4186 36.8091 34.4187 36.8094 34.4188 36.8096C34.4607 36.908 34.4821 37.0245 34.4889 37.1541H33.1281C33.1593 36.9414 33.227 36.7713 33.3405 36.6523C33.4652 36.5217 33.6289 36.4567 33.8452 36.4567ZM41.1835 36.4666C41.3741 36.4666 41.5241 36.507 41.6379 36.5842C41.7532 36.6624 41.8382 36.7726 41.8947 36.9201C41.8947 36.9201 41.8947 36.9202 41.8947 36.9201C41.9515 37.067 41.9809 37.2444 41.9809 37.4526C41.9809 37.6624 41.9516 37.8422 41.8946 37.9925C41.8381 38.1416 41.7523 38.2533 41.6352 38.3331C41.6351 38.3332 41.635 38.3333 41.6349 38.3333C41.5209 38.4121 41.373 38.4533 41.186 38.4533C40.9972 38.4533 40.8484 38.412 40.7345 38.3333C40.619 38.2535 40.5338 38.1417 40.4773 37.9925C40.4203 37.8422 40.391 37.6624 40.391 37.4526C40.391 37.1347 40.4571 36.8923 40.583 36.7206C40.583 36.7206 40.5832 36.7204 40.5832 36.7203C40.709 36.5514 40.9025 36.4665 41.1835 36.4666ZM26.437 37.5334V37.7236C26.437 37.9764 26.3634 38.1546 26.218 38.2752C26.0696 38.3981 25.8796 38.4605 25.6395 38.4605C25.4869 38.4605 25.3708 38.4262 25.2847 38.3615C25.2017 38.2992 25.16 38.207 25.16 38.0655C25.16 37.9045 25.2205 37.7903 25.3515 37.7027C25.4791 37.6174 25.7188 37.5612 26.0648 37.5483C26.0647 37.5484 26.0648 37.5483 26.0648 37.5483L26.437 37.5334Z" fill="#212121"/>
</svg>
