<svg width="50" height="50" viewBox="0 0 50 50" fill="none" xmlns="http://www.w3.org/2000/svg">
<g clip-path="url(#clip0_147_28)">
<path d="M49.0597 21.4547C47.8371 20.6317 44.6243 20.2802 42.2886 20.9093C42.1626 18.5829 40.9631 16.6223 38.7685 14.9118L37.956 14.3664L37.4146 15.1841C36.3503 16.7997 35.9019 18.9521 36.0608 20.9087C36.1861 22.1141 36.6055 23.4693 37.4146 24.4525C34.3746 26.2158 31.5727 25.8156 19.1634 25.8156H0.00405717C-0.0519951 28.6175 0.398401 34.0078 3.82616 38.3957C4.20468 38.8804 4.62012 39.3492 5.07052 39.8009C7.85731 42.5917 12.0678 44.6379 18.3641 44.6439C27.9695 44.6524 36.1993 39.4607 41.2051 26.9069C42.8524 26.934 47.2007 27.2024 49.3287 23.0901C49.3808 23.0209 49.8701 21.9994 49.8701 21.9994L49.059 21.454L49.0597 21.4547ZM12.5077 18.8921H7.12006V24.2797H12.5077V18.8921ZM19.468 18.8921H14.0804V24.2797H19.468V18.8921ZM26.4284 18.8921H21.0408V24.2797H26.4284V18.8921ZM33.3888 18.8921H28.0012V24.2797H33.3888V18.8921ZM5.5473 18.8921H0.159685V24.2797H5.5473V18.8921ZM12.5077 12.0874H7.12006V17.475H12.5077V12.0874ZM19.468 12.0874H14.0804V17.475H19.468V12.0874ZM26.4284 12.0874H21.0408V17.475H26.4284V12.0874ZM26.4284 5.28198H21.0408V10.6696H26.4284V5.28198Z" fill="#3E5A76"/>
</g>
<defs>
<clipPath id="clip0_147_28">
<rect width="50" height="50" fill="white"/>
</clipPath>
</defs>
</svg>
