<svg width="50" height="50" viewBox="0 0 50 50" fill="none" xmlns="http://www.w3.org/2000/svg">
<path d="M33.025 18.7104H23.4666V0H33.025C38.1833 0 42.3791 4.19583 42.3791 9.35417C42.3791 14.5125 38.1833 18.7104 33.025 18.7104ZM26.5312 15.6458H33.025C36.4937 15.6458 39.3145 12.8229 39.3145 9.35625C39.3145 5.88958 36.4916 3.06667 33.025 3.06667H26.5312V15.6458ZM26.5312 18.7104H16.975C11.8166 18.7104 7.6208 14.5146 7.6208 9.35625C7.6208 4.19792 11.8166 0 16.975 0H26.5333V18.7104H26.5312ZM16.975 3.06458C13.5062 3.06458 10.6854 5.8875 10.6854 9.35417C10.6854 12.8208 13.5062 15.6458 16.975 15.6458H23.4687V3.06458H16.975ZM26.5312 34.3542H16.975C11.8166 34.3542 7.6208 30.1583 7.6208 25C7.6208 19.8417 11.8166 15.6458 16.975 15.6458H26.5333V34.3542H26.5312ZM16.975 18.7104C13.5062 18.7104 10.6854 21.5333 10.6854 25C10.6854 28.4667 13.5083 31.2896 16.975 31.2896H23.4687V18.7104H16.975ZM17.025 50C11.8395 50 7.61871 45.8042 7.61871 40.6458C7.61871 35.4875 11.8145 31.2917 16.9729 31.2917H26.5312V40.5438C26.5312 45.7583 22.2666 50 17.025 50ZM16.975 34.3542C15.3075 34.3564 13.709 35.0197 12.53 36.1988C11.3509 37.3778 10.6876 38.9763 10.6854 40.6437C10.6854 44.1125 13.5291 46.9333 17.027 46.9333C20.5791 46.9333 23.4708 44.0667 23.4708 40.5417V34.3542H16.975ZM33.025 34.3542H32.8208C27.6625 34.3542 23.4666 30.1583 23.4666 25C23.4666 19.8417 27.6625 15.6458 32.8208 15.6458H33.025C38.1833 15.6458 42.3791 19.8417 42.3791 25C42.3791 30.1583 38.1833 34.3542 33.025 34.3542ZM32.8229 18.7104C29.3541 18.7104 26.5333 21.5333 26.5333 25C26.5333 28.4667 29.3562 31.2896 32.8229 31.2896H33.027C36.4958 31.2896 39.3166 28.4667 39.3166 25C39.3166 21.5333 36.4916 18.7104 33.025 18.7104H32.8229Z" fill="#3E5A76"/>
</svg>
