<svg width="50" height="50" viewBox="0 0 50 50" fill="none" xmlns="http://www.w3.org/2000/svg">
<g clip-path="url(#clip0_16_206)">
<path d="M49.0542 22.7703L27.2229 0.94115C25.9646 -0.3151 23.9271 -0.3151 22.6646 0.94115L18.1417 5.4724L23.8917 11.2224C25.2354 10.7745 26.7646 11.0766 27.8271 12.1411C28.9021 13.2141 29.1979 14.762 28.7396 16.0995L34.2771 21.6411C35.6208 21.1766 37.1667 21.4786 38.2354 22.5474C39.7375 24.0474 39.7375 26.4724 38.2354 27.9724C36.7375 29.4703 34.3167 29.4703 32.8188 27.9724C31.6958 26.8453 31.4146 25.187 31.9771 23.8141L26.7917 18.6557V32.2495C27.1583 32.4286 27.5042 32.6724 27.8083 32.9745C29.2938 34.4766 29.2938 36.8974 27.8083 38.3911C26.3104 39.8932 23.8729 39.8932 22.3729 38.3911C20.875 36.8932 20.875 34.4766 22.3729 32.9786C22.7521 32.6036 23.1792 32.3203 23.6333 32.1328V18.4057C23.1813 18.2161 22.75 17.9432 22.3833 17.5703C21.2479 16.4349 20.975 14.7745 21.5583 13.3849L15.9083 7.70782L0.9375 22.6682C-0.3125 23.9286 -0.3125 25.9682 0.9375 27.2286L22.7708 49.0557C24.0292 50.3141 26.0667 50.3141 27.325 49.0557L49.0542 27.3266C50.3146 26.0703 50.3146 24.0307 49.0542 22.7703Z" fill="#CA5D3B"/>
</g>
<defs>
<clipPath id="clip0_16_206">
<rect width="50" height="50" fill="white"/>
</clipPath>
</defs>
</svg>
