<svg width="50" height="50" viewBox="0 0 50 50" fill="none" xmlns="http://www.w3.org/2000/svg">
<g clip-path="url(#clip0_147_8)">
<path fill-rule="evenodd" clip-rule="evenodd" d="M11.3687 8.86877C10.7916 8.86877 10.3854 8.93752 9.97498 9.03961V9.10836H10.0416C10.3166 9.65211 10.7916 10.0271 11.1291 10.5042C11.4021 11.0479 11.6416 11.5896 11.9125 12.1354C11.9458 12.1 11.9791 12.0646 11.9791 12.0646C12.4583 11.7271 12.6958 11.1813 12.6958 10.3646C12.4916 10.125 12.4583 9.88961 12.2875 9.65002C12.0833 9.31044 11.6416 9.14169 11.3687 8.86877Z" fill="#3E5A76"/>
<path fill-rule="evenodd" clip-rule="evenodd" d="M46.0562 38.4208C43.3333 38.3521 41.2271 38.625 39.4583 39.3729C38.9479 39.5771 38.1333 39.5771 38.0625 40.2229C38.3354 40.4937 38.3687 40.9354 38.6083 41.3125C39.0167 41.9917 39.7271 42.9083 40.375 43.3875C41.0896 43.9313 41.8042 44.4729 42.5521 44.95C43.8771 45.7688 45.375 46.2438 46.6646 47.0604C47.4146 47.5354 48.1604 48.1479 48.9125 48.6583C49.2854 48.9292 49.5208 49.3729 49.9979 49.5417V49.4375C49.7583 49.1333 49.6917 48.6896 49.4542 48.3479C49.1146 48.0104 48.7729 47.7021 48.4333 47.3646C47.4458 46.0375 46.2208 44.8833 44.8979 43.9313C43.8083 43.1813 41.4271 42.1604 40.9875 40.9063C40.9875 40.9063 40.9521 40.8708 40.9187 40.8375C41.6667 40.7687 42.5521 40.4958 43.2667 40.2896C44.4208 39.9854 45.475 40.0542 46.6646 39.7479C47.2104 39.6104 47.7542 39.4396 48.3 39.2729V38.9646C47.6854 38.3542 47.2458 37.5354 46.5979 36.9583C44.8646 35.4625 42.9583 34.0021 40.9875 32.775C39.9312 32.0937 38.5708 31.6542 37.4479 31.075C37.0417 30.8708 36.3625 30.7708 36.1229 30.4271C35.5104 29.6792 35.1687 28.6937 34.7271 27.8083C33.7417 25.9396 32.7875 23.8667 31.9396 21.8917C31.3271 20.5667 30.9542 19.2417 30.2062 18.0167C26.7021 12.2354 22.8937 8.73333 17.0458 5.29791C15.7896 4.58333 14.2937 4.27708 12.6958 3.90416C11.8437 3.86666 10.9958 3.80208 10.1458 3.76875C9.59999 3.52916 9.05416 2.88333 8.57916 2.57708C6.63958 1.35416 1.64374 -1.29792 0.214578 2.20416C-0.704172 4.41666 1.57499 6.59166 2.35833 7.71458C2.93541 8.49583 3.68541 9.38125 4.09166 10.2646C4.32916 10.8417 4.39583 11.4542 4.63541 12.0646C5.17916 13.5604 5.68749 15.2271 6.40416 16.6229C6.77708 17.3375 7.18541 18.0875 7.66041 18.7292C7.93541 19.1062 8.41041 19.2729 8.51249 19.8875C8.03749 20.5667 7.99999 21.5875 7.72916 22.4375C6.50624 26.2812 6.98124 31.0417 8.71666 33.8625C9.26041 34.7125 10.5521 36.5833 12.2875 35.8687C13.8167 35.2583 13.4771 33.3187 13.9187 31.6208C14.0208 31.2104 13.9521 30.9396 14.1562 30.6687V30.7375C14.6312 31.6875 15.1083 32.6042 15.5521 33.5604C16.6062 35.225 18.4417 36.9604 19.975 38.1146C20.7896 38.7292 21.4354 39.7812 22.4562 40.1562V40.0542H22.3896C22.1854 39.75 21.8792 39.6125 21.6083 39.375C20.9958 38.7625 20.3167 38.0146 19.8396 37.3333C18.4125 35.4292 17.1521 33.3208 16.0312 31.1437C15.4854 30.0875 15.0104 28.9312 14.5687 27.8792C14.3646 27.4729 14.3646 26.8583 14.025 26.6562C13.5125 27.4042 12.7667 28.05 12.3937 28.9667C11.7479 30.4312 11.6792 32.2333 11.4396 34.1042C11.3042 34.1396 11.3729 34.1042 11.3042 34.1708C10.2167 33.9 9.84374 32.7771 9.43333 31.8271C8.41458 29.4104 8.24166 25.5333 9.12708 22.7437C9.36458 22.0312 10.3875 19.7875 9.97708 19.1062C9.76874 18.4562 9.08958 18.0875 8.71666 17.575C8.27499 16.9292 7.79583 16.1146 7.49374 15.3979C6.67708 13.4937 6.26666 11.3854 5.38541 9.48125C4.97708 8.59583 4.26041 7.67708 3.68541 6.8625C3.03749 5.94375 2.32291 5.29791 1.81249 4.21041C1.64374 3.83541 1.40624 3.22291 1.67708 2.81666C1.74374 2.54375 1.88124 2.44166 2.15416 2.37291C2.59374 2 3.85416 2.475 4.29374 2.67916C5.55416 3.1875 6.60833 3.66666 7.66041 4.37916C8.13749 4.72083 8.64791 5.36666 9.25833 5.5375H9.97291C11.0604 5.77291 12.2854 5.60416 13.3062 5.91041C15.1062 6.4875 16.7396 7.3375 18.2021 8.25625C22.6562 11.0792 26.3292 15.0937 28.8104 19.8875C29.2187 20.6687 29.3917 21.3833 29.7646 22.1979C30.4792 23.8687 31.3646 25.5687 32.0771 27.1979C32.7917 28.7958 33.4729 30.4271 34.4937 31.7562C35.0021 32.4687 37.0437 32.8437 37.9625 33.2187C38.6417 33.5229 39.6958 33.7958 40.3083 34.1687C41.4646 34.8812 42.6187 35.7 43.7083 36.4833C44.2521 36.8917 45.9542 37.7396 46.0562 38.4208Z" fill="#3E5A76"/>
</g>
<defs>
<clipPath id="clip0_147_8">
<rect width="50" height="50" fill="white"/>
</clipPath>
</defs>
</svg>
