<svg width="50" height="50" viewBox="0 0 50 50" fill="none" xmlns="http://www.w3.org/2000/svg">
<g clip-path="url(#clip0_147_6)">
<path d="M37.1078 46.8828C36.9219 46.9813 36.9375 47.0125 37.1156 46.9219C37.1734 46.8985 37.2219 46.8657 37.2641 46.8266C37.2641 46.7938 37.2641 46.7938 37.1078 46.8828ZM37.4828 46.6797C37.3938 46.7532 37.3937 46.7532 37.5 46.7047C37.5562 46.6719 37.6063 46.6407 37.6063 46.6313C37.6063 46.5891 37.5813 46.5985 37.4828 46.6797ZM37.7266 46.5328C37.6375 46.6063 37.6375 46.6063 37.7438 46.5578C37.8016 46.525 37.85 46.4907 37.85 46.4828C37.85 46.4438 37.825 46.4516 37.7266 46.5328ZM37.9734 46.3875C37.8844 46.461 37.8844 46.461 37.9875 46.411C38.0453 46.3797 38.0937 46.3469 38.0937 46.3375C38.0937 46.2985 38.0687 46.3063 37.9734 46.3875ZM38.3063 46.1672C38.1359 46.2813 38.0766 46.3547 38.2328 46.2735C38.3375 46.2094 38.5156 46.0688 38.4844 46.0688C38.4172 46.0938 38.3609 46.136 38.3047 46.1672H38.3063ZM23.3641 0.0172217C23.25 0.0250342 22.9078 0.0562842 22.6078 0.0812842C15.5016 0.725034 8.85313 4.55003 4.63906 10.4422C2.30938 13.6719 0.796875 17.4235 0.226562 21.3625C0.025 22.7375 0 23.1438 0 25.0078C0 26.8703 0.025 27.2703 0.226562 28.6453C1.5875 38.0375 8.26875 45.9219 17.325 48.8438C18.9547 49.3641 20.6625 49.7235 22.6078 49.9438C23.3641 50.025 26.6344 50.025 27.3906 49.9438C30.7531 49.5688 33.5922 48.7391 36.4016 47.3063C36.8328 47.0875 36.9141 47.0297 36.8562 46.9813C35.4812 45.1672 34.1313 43.3516 32.7797 41.5203L28.7844 36.125L23.7797 28.711C22.1109 26.2297 20.4359 23.7547 18.7344 21.2985C18.7172 21.2985 18.6953 24.5938 18.6859 28.6125C18.6687 35.6516 18.6687 35.9375 18.5797 36.1C18.4906 36.2953 18.3437 36.4578 18.1484 36.5485C17.9937 36.6219 17.8547 36.6375 17.1156 36.6375H16.2703L16.05 36.5C15.9125 36.411 15.7984 36.2875 15.725 36.1422L15.6188 35.9219L15.6266 26.1235L15.6438 16.325L15.7984 16.1297C15.8969 16.0094 16.0188 15.911 16.1563 15.8375C16.3609 15.7391 16.4422 15.7235 17.2875 15.7235C18.2797 15.7235 18.4437 15.7625 18.7047 16.0485C20.7297 19.0672 22.7484 22.0938 24.7344 25.1297C27.9828 30.0547 32.4172 36.775 34.5969 40.0719L38.5609 46.0703L38.7563 45.9407C40.6609 44.6703 42.3938 43.1578 43.8891 41.4328C47.0391 37.8266 49.0828 33.3907 49.775 28.6563C49.9766 27.2813 50.0016 26.8735 50.0016 25.011C50.0016 23.1469 49.9766 22.7485 49.775 21.3735C48.4141 11.9813 41.7328 4.09691 32.6766 1.17347C30.9828 0.637534 29.2406 0.271909 27.4766 0.0844092C27.0031 0.0359717 23.7719 -0.0218408 23.3656 0.0203467L23.3641 0.0172217ZM33.5938 15.1375C33.8297 15.25 34.0078 15.4625 34.0891 15.7063C34.1312 15.8375 34.1391 18.5547 34.1312 24.675L34.1141 33.4625L32.5687 31.0875L31.0141 28.711V22.3313C31.0141 18.1953 31.0313 15.8766 31.0531 15.7625C31.1266 15.5016 31.3047 15.2828 31.5422 15.1453C31.7359 15.0469 31.8109 15.0391 32.5844 15.0391C33.3078 15.0391 33.4312 15.0469 33.5938 15.1375Z" fill="#181818"/>
</g>
<defs>
<clipPath id="clip0_147_6">
<rect width="50" height="50" fill="white"/>
</clipPath>
</defs>
</svg>
