<svg width="50" height="50" viewBox="0 0 50 50" fill="none" xmlns="http://www.w3.org/2000/svg">
<path d="M27.8711 40.9505H45.5762C46.141 40.9505 46.6817 40.7521 47.1711 40.472C47.6605 40.1919 48.1648 39.8404 48.4472 39.3554C48.7295 38.8703 48.926 38.3202 48.9257 37.7602C48.9254 37.2002 48.73 36.6502 48.4472 36.1654L36.4843 15.5893C36.2021 15.1043 35.8569 14.7525 35.3678 14.4727C34.8785 14.1927 34.1782 13.9941 33.6132 13.9941C33.0482 13.9941 32.5073 14.1927 32.0182 14.4727C31.5289 14.7525 31.184 15.1043 30.9017 15.5892L27.871 20.8528L21.8099 10.6442C21.5272 10.1593 21.1827 9.64844 20.6934 9.36846C20.204 9.08858 19.6633 9.04951 19.0982 9.04951C18.5333 9.04951 17.9926 9.08858 17.5032 9.36846C17.0139 9.64844 16.5099 10.1593 16.2271 10.6442L1.39317 36.1654C1.11045 36.6502 1.07451 37.2002 1.07422 37.7602C1.07393 38.3202 1.11094 38.8703 1.39326 39.3554C1.67549 39.8403 2.17988 40.1919 2.66924 40.472C3.1586 40.7521 3.69932 40.9505 4.26436 40.9505H15.4297C19.8538 40.9505 23.0739 38.9659 25.3189 35.2083L30.7421 25.7975L33.6132 20.8528L42.3859 35.8463H30.7422L27.8711 40.9505ZM15.2701 35.8463H7.4544L19.0982 15.7486L25 25.7976L21.0908 32.6124C19.5998 35.0505 17.9002 35.8464 15.2702 35.8464L15.2701 35.8463Z" fill="#38A27A"/>
</svg>
