<svg width="50" height="50" viewBox="0 0 50 50" fill="none" xmlns="http://www.w3.org/2000/svg">
<g clip-path="url(#clip0_147_14)">
<path d="M47.8908 30.7414C41.711 31.9702 41.2849 29.952 41.2849 29.952C47.8107 20.6136 50.5357 8.75654 48.1819 5.85533C41.7616 -2.05889 30.6463 1.6846 30.4607 1.78225L30.3974 1.79039C29.1783 1.54625 27.8115 1.39977 26.2761 1.37535C23.4793 1.33059 21.3575 2.08336 19.7503 3.2593C19.7503 3.2593 -0.0801353 -4.62237 0.843681 13.1714C1.04194 16.9556 6.46673 41.8091 12.9419 34.3018C15.3084 31.5552 17.5947 29.2359 17.5947 29.2359C18.7294 29.9642 20.092 30.3345 21.5136 30.2002L21.6232 30.1107C21.5895 30.4525 21.6064 30.7862 21.6654 31.1809C19.9992 32.9794 20.4885 33.2927 17.1518 33.9559C13.7771 34.6273 15.7597 35.8195 17.0548 36.1328C18.624 36.5113 22.2518 37.0484 24.7068 33.7362L24.6098 34.1146C25.2637 34.6192 25.7235 37.3983 25.6475 39.917C25.5716 42.4357 25.521 44.1651 26.0356 45.516C26.5503 46.8669 27.0649 49.9064 31.4478 48.9991C35.1093 48.2422 37.0075 46.281 37.2733 43.0095C37.4589 40.682 37.8849 41.0279 37.9102 38.9486L38.2519 37.9639C38.6442 34.8104 38.3152 33.7932 40.572 34.2652L41.1204 34.3099C42.7824 34.3832 44.9549 34.0536 46.2288 33.4798C48.9665 32.2551 50.599 30.2002 47.8908 30.7414Z" fill="#336791"/>
<path d="M24.2091 32.5276C24.2217 32.1207 24.5718 31.7993 24.9937 31.8115C25.4155 31.8237 25.7488 32.1614 25.7361 32.5683C25.6475 35.5916 25.6644 38.623 25.7783 41.0481C25.8837 43.2332 26.0651 44.8771 26.3182 45.4874C26.5882 46.1344 27.0058 47.0906 27.8073 47.7376C28.5877 48.3724 29.7899 48.7589 31.7051 48.3642C33.3797 48.0184 34.506 47.526 35.2569 46.7732C35.9993 46.0286 36.4212 44.9747 36.6827 43.5018C36.8767 42.4275 37.1425 40.5517 37.3829 38.6841C37.6867 36.3484 37.9651 33.9884 38.0241 33.2275C38.0537 32.8206 38.4207 32.5154 38.8425 32.548C39.2643 32.5765 39.5807 32.9305 39.547 33.3374C39.4879 34.0779 39.2095 36.4664 38.8931 38.8712C38.64 40.7999 38.37 42.7124 38.1844 43.75C37.8681 45.5119 37.3323 46.8099 36.3495 47.7946C35.3708 48.7752 33.9998 49.3937 32.013 49.8047C29.5453 50.3133 27.917 49.7558 26.816 48.8606C25.7319 47.9817 25.2172 46.818 24.8924 46.0327C24.5718 45.2636 24.3567 43.4489 24.2428 41.1092C24.1331 38.6637 24.1205 35.5916 24.2091 32.5276Z" fill="white"/>
<path d="M19.9992 2.4455C20.3915 2.59605 20.5813 3.0233 20.4252 3.40172C20.2691 3.78013 19.8262 3.96324 19.4339 3.81269C19.3833 3.79234 0.696029 -3.57257 1.56079 13.0615C1.66625 15.1164 3.35358 23.523 5.91833 29.3864C6.72826 31.2337 7.61833 32.8125 8.56323 33.8216C9.35206 34.668 10.1578 35.0749 10.9339 34.8063C11.3642 34.6558 11.824 34.3181 12.3091 33.7565C14.684 31.0018 16.8438 28.8249 16.8523 28.8208C17.1433 28.5279 17.6242 28.5156 17.928 28.7964C18.2317 29.0772 18.2443 29.541 17.9533 29.834C17.949 29.8381 15.8399 31.958 13.4818 34.6965C12.8111 35.4777 12.1277 35.9619 11.4401 36.1979C9.9806 36.6984 8.63916 36.1125 7.42428 34.8104C6.36126 33.6752 5.38261 31.954 4.51363 29.9561C1.87716 23.938 0.143426 15.2629 0.0337489 13.1307C-0.949125 -5.81459 19.9401 2.42108 19.9992 2.4455Z" fill="white"/>
<path d="M30.8361 2.33159L29.7014 1.1353C29.7942 1.10275 29.887 1.07426 29.9798 1.04985C30.2286 0.972539 30.4986 0.895228 30.7897 0.813848C31.2157 0.691777 31.8401 0.533086 32.6036 0.390671C36.4127 -0.321406 43.8455 -0.707962 48.7429 5.33045C50.1266 7.03537 50.0127 11.2549 48.5826 16.2517C47.3171 20.6747 45.035 25.7732 41.8797 30.2898C41.6435 30.6275 41.1668 30.717 40.8167 30.4891C40.4666 30.2613 40.3738 29.8015 40.61 29.4638C43.6725 25.0814 45.8829 20.1376 47.1104 15.857C48.4181 11.2916 48.6248 7.56841 47.5407 6.23377C43.1452 0.817916 36.3663 1.18413 32.8862 1.83924C32.1733 1.97352 31.6038 2.11593 31.2157 2.22579L30.8361 2.33159Z" fill="white"/>
<path d="M41.9683 29.6509C41.9768 29.6712 41.981 29.6916 41.9852 29.7119C41.9852 29.716 42.2467 31.0303 47.6926 29.9479C48.4646 29.7933 49.0129 29.8258 49.3673 29.9927C49.8271 30.2043 50.0253 30.5583 49.9958 31.014C49.9789 31.2907 49.844 31.5877 49.6204 31.8848C49.1057 32.5643 47.9288 33.4432 46.4988 34.082C45.4274 34.5622 43.7949 34.8836 42.2973 34.965C41.4157 35.0138 40.572 34.9813 39.9013 34.8511C39.0577 34.6883 38.4165 34.3506 38.1507 33.8013C38.079 33.6548 38.0368 33.4961 38.0284 33.3252C37.8597 30.4688 39.3023 29.9683 40.3105 29.6916C40.205 29.5451 40.0616 29.3701 39.9013 29.1789C39.3909 28.5645 38.7371 27.7751 38.2182 26.5666C38.1381 26.3835 37.9061 25.9766 37.5939 25.4395C36.2736 23.1567 33.6751 18.6564 34.1855 15.5843C34.5483 13.3911 36.282 11.9344 40.6142 12.3698L40.572 12.2477C40.3653 11.6821 40.0363 10.9416 39.5596 10.1115C37.6698 6.79118 33.5485 2.16065 26.2297 2.04672C15.0637 1.87175 15.4307 15.4541 15.4307 15.4907C15.4392 15.8976 15.1017 16.2313 14.6799 16.2394C14.258 16.2476 13.9121 15.922 13.9037 15.5151C13.9037 15.4704 13.4903 0.374354 26.2508 0.573735C34.3078 0.699874 38.8299 5.76986 40.8969 9.39942C41.4115 10.3027 41.7785 11.1247 42.0105 11.7635C42.272 12.4797 42.3691 13.0412 42.3269 13.2894C42.2678 13.6556 42.0569 13.8835 41.6941 13.9526L41.4199 13.9567C37.4463 13.3423 35.9445 14.2822 35.6914 15.8122C35.2654 18.3879 37.6951 22.5871 38.9269 24.7233C39.2601 25.3011 39.5132 25.7406 39.6271 26.0091C40.0658 27.0304 40.6395 27.7222 41.0867 28.2674C41.5043 28.7598 41.8333 29.1585 41.9683 29.6509ZM48.0005 31.3883C43.9636 32.194 42.0822 31.604 41.2175 30.9692C41.0993 31.0059 40.9728 31.0384 40.8378 31.075C40.2979 31.2215 39.4584 31.4494 39.547 33.1991C39.6103 33.2642 39.8465 33.3333 40.1924 33.4025C40.745 33.5083 41.4537 33.5327 42.2088 33.492C43.5291 33.4188 44.9507 33.1462 45.8576 32.7393C46.7899 32.3202 47.5703 31.8156 48.0512 31.3761L48.0005 31.3883Z" fill="white"/>
<path d="M22.1885 31.604C21.8764 31.9417 21.6191 32.255 21.3997 32.5236C20.4632 33.671 20.1722 34.0291 17.2657 34.6069C16.7427 34.7127 16.3883 34.8144 16.169 34.9162C16.4389 35.1033 16.8439 35.258 17.1982 35.3434C17.9154 35.5184 19.1049 35.7259 20.3789 35.5184C21.6191 35.3149 22.9563 34.7005 24.0404 33.2357C24.0741 33.1868 24.1037 33.1339 24.129 33.081C24.2387 32.8247 24.2133 32.5032 24.1037 32.1981C23.9856 31.8725 23.7704 31.5877 23.5215 31.4127C23.4625 31.3721 23.4034 31.3395 23.3402 31.3151L23.3022 31.2988C23.1461 31.2378 22.9732 31.1727 22.8255 31.1849C22.6652 31.2012 22.4627 31.3069 22.1885 31.604ZM20.1975 31.6081C20.4042 31.3558 20.6446 31.0628 21.0074 30.6681C21.0369 30.6315 21.0707 30.5949 21.1044 30.5623C21.6655 29.9764 22.2012 29.7567 22.6947 29.716C23.1841 29.6753 23.5637 29.8096 23.8843 29.9398C23.897 29.9438 23.9096 29.9479 23.9265 29.956C24.091 30.0211 24.2513 30.1107 24.4074 30.2165C24.9094 30.5623 25.3228 31.1116 25.5463 31.7098C25.7741 32.3323 25.8121 33.0281 25.5421 33.6466C25.4746 33.8013 25.3903 33.9477 25.2848 34.0902C23.9181 35.9375 22.2139 36.7106 20.6362 36.971C19.0881 37.2274 17.6791 36.9791 16.827 36.7757C16.2069 36.6251 15.4392 36.2915 14.9878 35.8846C14.7221 35.6445 14.5407 35.3597 14.4901 35.0423C14.431 34.6639 14.5491 34.2977 14.9077 33.9721C15.2536 33.6588 15.8948 33.374 16.9536 33.1624C19.3116 32.6945 19.5226 32.4381 20.1975 31.6081Z" fill="white"/>
<path d="M22.2687 30.9652C22.332 31.368 22.0451 31.7464 21.6275 31.8034C21.2099 31.8604 20.8176 31.5877 20.7585 31.1849C20.7417 31.0873 20.7332 30.9896 20.7248 30.8879C20.4717 30.8797 20.2228 30.8635 19.9781 30.8268C18.3414 30.6071 16.8608 29.8096 15.7471 28.6296C14.6462 27.4658 13.9037 25.9277 13.7308 24.2106C13.6675 23.6003 13.6802 22.9655 13.773 22.3267C14.1484 19.7469 14.005 17.4398 13.9333 16.2435C13.9122 15.918 13.8995 15.6738 13.8995 15.4867C13.9037 15.0025 15.165 13.9364 16.827 13.2772C17.5779 12.9802 18.4174 12.7319 19.2484 12.6099C20.1258 12.4837 21.0116 12.4959 21.8089 12.736C23.0575 13.1144 24.0488 14.0055 24.4285 15.7105C25.7995 21.818 24.5719 24.4426 23.6143 26.4974C23.4498 26.8514 23.2938 27.1851 23.1756 27.4862C23.1714 27.5065 23.163 27.5228 23.1545 27.5431C22.7538 28.5848 23.3402 27.0589 23.0364 27.8361C22.5598 29.0894 22.1421 30.1636 22.2687 30.9652ZM20.8893 29.419C21.0538 28.7639 21.3238 28.0721 21.6106 27.3275C21.8384 26.7416 21.2436 28.2756 21.7203 27.0345C21.7288 27.0142 21.7372 26.9938 21.7456 26.9735C21.8933 26.5951 22.0536 26.2573 22.2181 25.8993C23.0871 24.0397 24.1923 21.6634 22.931 16.0319C22.6863 14.9374 22.0915 14.3758 21.3491 14.152C20.7923 13.9852 20.1384 13.9811 19.4677 14.0788C18.7506 14.1846 18.0335 14.3962 17.3923 14.6485C16.266 15.092 15.4139 15.4663 15.4139 15.4989C15.4139 15.6047 15.4265 15.8447 15.4476 16.1662C15.5236 17.4072 15.6712 19.812 15.2789 22.5383C15.203 23.0713 15.1903 23.5881 15.2409 24.0845C15.3801 25.468 15.9792 26.709 16.8692 27.6489C17.7466 28.5767 18.9067 29.2074 20.1806 29.3783C20.4168 29.4027 20.6531 29.419 20.8893 29.419Z" fill="white"/>
<path d="M19.6449 15.389C19.6111 15.6291 20.1047 16.276 20.7459 16.3615C21.3871 16.4469 21.9397 15.9424 21.9734 15.7023C22.0072 15.4622 21.5136 15.1937 20.8724 15.1082C20.2312 15.0228 19.6786 15.1489 19.6449 15.389Z" fill="white"/>
<path d="M19.8979 15.4215C19.8895 15.4744 19.9781 15.6128 20.1257 15.7633C20.2902 15.9301 20.5222 16.0807 20.7796 16.1173H20.7838C21.0369 16.1499 21.2731 16.0685 21.4503 15.9505C21.6148 15.8447 21.716 15.7308 21.7287 15.6657C21.7287 15.6534 21.6654 15.6168 21.56 15.5599C21.387 15.4663 21.1339 15.389 20.8428 15.3483H20.8344C20.5476 15.3117 20.2818 15.3198 20.092 15.3645C19.9739 15.393 19.8979 15.4134 19.8979 15.4215ZM19.7587 16.101C19.5098 15.8488 19.3706 15.5477 19.396 15.3605V15.3523C19.4297 15.1204 19.6448 14.9617 19.9739 14.8844C20.2227 14.8274 20.5518 14.8152 20.9019 14.86C20.9061 14.86 20.9103 14.86 20.9146 14.86C21.2689 14.9088 21.5853 15.0065 21.8088 15.1285C22.1041 15.2872 22.2686 15.5029 22.2349 15.7308C22.2096 15.9098 22.0198 16.1702 21.7371 16.3533C21.4714 16.5283 21.1086 16.6544 20.7163 16.6015H20.7121C20.324 16.5527 19.9907 16.337 19.7587 16.101Z" fill="white"/>
<path d="M39.2348 14.8966C39.2686 15.1367 38.775 15.7837 38.1338 15.8691C37.4884 15.9546 36.94 15.45 36.9063 15.2099C36.8725 14.9699 37.3661 14.7013 38.0115 14.6159C38.6485 14.5304 39.1969 14.6565 39.2348 14.8966Z" fill="white"/>
<path d="M39.3572 14.8804C39.3783 15.035 39.2518 15.2995 39.0282 15.5274C38.8131 15.7471 38.5009 15.9465 38.1466 15.9912H38.1423C37.788 16.036 37.459 15.9221 37.2143 15.7634C36.9612 15.6006 36.7967 15.3768 36.7714 15.2262C36.7461 15.0513 36.8853 14.8804 37.1342 14.7461C37.3451 14.6322 37.6446 14.5386 37.982 14.4938C38.3195 14.4491 38.6359 14.4613 38.8721 14.5142C39.1505 14.5752 39.3319 14.7013 39.3572 14.8804ZM38.8426 15.3565C39.0155 15.1815 39.1168 15.0025 39.1041 14.9129C39.0957 14.8478 38.986 14.7909 38.8173 14.7502C38.6106 14.7013 38.3279 14.6932 38.02 14.7339C37.7163 14.7746 37.4463 14.86 37.2607 14.9577C37.1088 15.0391 37.0203 15.1245 37.0287 15.1896C37.0414 15.2791 37.1679 15.4297 37.3619 15.5558C37.5602 15.686 37.8302 15.7796 38.117 15.743H38.1212C38.4039 15.7064 38.6612 15.5396 38.8426 15.3565Z" fill="white"/>
<path d="M40.7703 13.2609C40.7492 12.854 41.0741 12.5081 41.4959 12.4878C41.9177 12.4674 42.2763 12.7807 42.2974 13.1876C42.3607 14.3269 42.2172 15.2303 42.0654 16.1783C41.9515 16.8864 41.8334 17.6269 41.8081 18.4529C41.7827 19.2382 41.8882 20.109 42.0021 21.0042C42.2974 23.3601 42.6095 25.8829 40.7956 28.4912C40.5594 28.8289 40.087 28.9184 39.7368 28.6946C39.3867 28.4668 39.2939 28.011 39.5259 27.6733C41.0192 25.5208 40.7408 23.2788 40.4793 21.1792C40.3612 20.2433 40.2473 19.3318 40.281 18.4122C40.3105 17.4601 40.4329 16.6992 40.551 15.9627C40.6944 15.0756 40.8252 14.2374 40.7703 13.2609Z" fill="white"/>
</g>
<defs>
<clipPath id="clip0_147_14">
<rect width="50" height="50" fill="white"/>
</clipPath>
</defs>
</svg>
