<svg width="50" height="50" viewBox="0 0 50 50" fill="none" xmlns="http://www.w3.org/2000/svg">
<g clip-path="url(#clip0_16_117)">
<path d="M25 0C38.8062 0 50 11.1937 50 25C50 38.8062 38.8062 50 25 50C11.1937 50 0 38.8062 0 25C0 11.1937 11.1937 0 25 0ZM20.0312 33.3292C20.3958 34.6729 20.3562 35.9292 19.9812 37.0625L19.8458 37.4375C19.7958 37.5646 19.7375 37.6875 19.6833 37.8042C19.3917 38.4083 19.0042 38.9708 18.5271 39.4917C17.0729 41.0729 15.0437 41.6729 14.1729 41.1687C13.2354 40.6229 13.7021 38.3875 15.3896 36.6062C17.2042 34.6937 19.8062 33.4625 19.8062 33.4625V33.4562L20.0312 33.3292ZM40.6792 10.7021C39.55 6.25833 32.1854 4.79792 25.2167 7.275C21.0729 8.74792 16.5833 11.0625 13.3562 14.0812C9.51667 17.6667 8.90625 20.7917 9.15833 22.0979C10.0479 26.7042 16.3604 29.7167 18.9562 31.9521V31.9646C18.1917 32.3396 12.5896 35.15 11.2771 38.0583C9.87083 41.1208 11.4958 43.3104 12.5583 43.5896C15.8396 44.4979 19.2146 42.8396 21.0271 40.1542C22.7771 37.5271 22.6229 34.1521 21.8687 32.4958C22.9021 32.2146 24.1187 32.0896 25.6812 32.2792C30.0583 32.7792 30.9333 35.5292 30.7437 36.6542C30.5562 37.7771 29.6542 38.4333 29.3396 38.6208C29.0271 38.8104 28.9333 38.8708 28.9625 38.9979C28.9937 39.1854 29.1521 39.1854 29.4 39.1542C29.7437 39.0917 31.6833 38.2167 31.7771 36.0896C31.8708 33.4021 29.3062 30.4042 24.7458 30.4646C22.8708 30.4979 21.6812 30.6542 20.8396 30.9979C20.7771 30.9042 20.7125 30.8417 20.6208 30.7792C17.8083 27.7479 12.5896 25.6229 12.8083 21.5917C12.8708 20.1229 13.4021 16.25 22.8083 11.5625C30.5271 7.71667 36.6854 8.78125 37.7479 11.125C39.275 14.4667 34.4646 20.6875 26.4333 21.5917C23.3708 21.9354 21.7771 20.75 21.3687 20.3104C20.9333 19.8417 20.8708 19.8104 20.7146 19.9062C20.4646 20.0312 20.6208 20.4375 20.7146 20.6875C20.9646 21.3125 21.9333 22.4062 23.6229 22.9687C25.0896 23.4375 28.6854 23.7167 32.9979 22.0312C37.8396 20.1583 41.6208 14.9375 40.5271 10.5625L40.6792 10.7021Z" fill="#B26F6F"/>
</g>
<defs>
<clipPath id="clip0_16_117">
<rect width="50" height="50" fill="white"/>
</clipPath>
</defs>
</svg>
