<svg width="50" height="50" viewBox="0 0 50 50" fill="none" xmlns="http://www.w3.org/2000/svg">
<path d="M42.0937 34.15C36.95 41.0021 25.9667 38.6896 18.9229 39.0208C18.9229 39.0208 17.675 39.0917 16.4208 39.2979C16.4208 39.2979 16.8958 39.0958 17.5021 38.8854C22.4479 37.175 24.7854 36.8313 27.7917 35.2875C33.4375 32.3958 39.0583 26.0938 40.2021 19.5479C38.0521 25.8438 31.5146 31.2625 25.5625 33.4625C21.4896 34.9667 14.1208 36.4292 14.1187 36.4292C14.0186 36.3779 13.9193 36.3251 13.8208 36.2708C8.81041 33.8333 8.66457 22.9792 17.7667 19.4813C21.7583 17.9479 25.5729 18.7896 29.8875 17.7625C34.4875 16.6688 39.8167 13.2208 41.9812 8.71251C44.4083 15.9167 47.325 27.1833 42.0937 34.15ZM42.1812 6.48335C41.5993 7.87865 40.8546 9.20032 39.9625 10.4208C38.0233 8.42219 35.7024 6.83338 33.1375 5.74867C30.5727 4.66396 27.816 4.10545 25.0312 4.10626C13.525 4.10626 4.16666 13.4646 4.16666 24.9688C4.16532 27.8384 4.75784 30.6773 5.90695 33.3068C7.05607 35.9363 8.73691 38.2996 10.8437 40.2479L11.3021 40.6521C10.968 40.3175 10.7805 39.8639 10.7808 39.391C10.7811 38.9182 10.9691 38.4648 11.3036 38.1306C11.6381 37.7964 12.0917 37.6087 12.5645 37.6088C13.0373 37.6089 13.4908 37.7968 13.8251 38.1311C14.1595 38.4655 14.3474 38.9189 14.3475 39.3918C14.3476 39.8646 14.1599 40.3181 13.8257 40.6526C13.4914 40.9871 13.0381 41.1752 12.5652 41.1755C12.0924 41.1758 11.6388 40.9883 11.3042 40.6542L11.6146 40.9292C15.3654 44.1003 20.1195 45.8381 25.0312 45.8333C36.0271 45.8333 45.0583 37.275 45.8312 26.475C46.4021 21.1854 44.8396 14.4688 42.1812 6.48335Z" fill="#38A27A"/>
</svg>
