<svg width="50" height="50" viewBox="0 0 50 50" fill="none" xmlns="http://www.w3.org/2000/svg">
<path d="M33.9677 1.08581C31.8192 -0.829599 29.2178 -0.060738 26.6491 2.21886C26.2676 2.55803 25.888 2.93376 25.5103 3.33457C21.1187 7.99398 17.0413 16.6249 15.7733 23.217C16.2666 24.2171 16.652 25.4947 16.9064 26.4697C16.9719 26.7202 17.0297 26.9553 17.0779 27.1538C17.1896 27.6259 17.2494 27.9342 17.2494 27.9342C17.2494 27.9342 17.2111 27.7858 17.049 27.3157C17.0181 27.2251 16.9835 27.1268 16.943 27.0112C16.9255 26.963 16.9026 26.9052 16.8755 26.8436C16.5884 26.1769 15.7964 24.7721 15.4476 24.1593C15.149 25.0399 14.885 25.8628 14.6653 26.6085C15.6731 28.4507 16.2859 31.609 16.2859 31.609C16.2859 31.609 16.2319 31.4047 15.9795 30.6898C15.754 30.0578 14.6364 28.098 14.3705 27.6394C13.9176 29.314 13.7365 30.4432 13.9003 30.7187C14.2163 31.2525 14.5169 32.1716 14.7809 33.1891C15.3764 35.4802 15.7906 38.2705 15.7906 38.2705C15.7906 38.2705 15.804 38.4555 15.8273 38.7407C15.7444 40.6657 15.7944 42.6601 15.9429 44.4638C16.1414 46.8513 16.5114 48.9016 16.9854 49.9999L17.3072 49.8246C16.6116 47.6625 16.3283 44.8279 16.4516 41.5598C16.6386 36.5632 17.789 30.5395 19.9125 24.2595C23.5024 14.7808 28.4817 7.17502 33.037 3.54269C28.8844 7.29449 23.2615 19.4363 21.5793 23.9319C19.6947 28.9671 18.3593 33.692 17.5558 38.2184C18.9451 33.9753 23.433 32.1504 23.433 32.1504C23.433 32.1504 25.6356 29.4353 28.2081 25.5563C26.6665 25.9071 24.1364 26.5102 23.2885 26.8667C22.0379 27.3908 21.7007 27.57 21.7007 27.57C21.7007 27.57 25.7512 25.1035 29.2255 23.9859C34.0044 16.4591 39.211 5.76448 33.9677 1.08581Z" fill="#38A27A"/>
</svg>
