<svg width="50" height="50" viewBox="0 0 50 50" fill="none" xmlns="http://www.w3.org/2000/svg">
<g clip-path="url(#clip0_147_2)">
<path d="M50 0H0V50H50V0Z" fill="#3E5A76"/>
<path d="M29.8473 22.2222H11.4265V26.7556H18.0335V47.2222H23.2682V26.7556H29.8473V22.2222Z" fill="white"/>
<path d="M46.1028 27.8944C46.1028 27.8944 43.6209 26.2389 40.8153 26.2389C38.0098 26.2389 37.0001 27.5722 37.0001 28.9972C37.0001 32.675 47.2515 32.3069 47.2515 39.7083C47.2515 51.1097 31.6209 46.0527 31.6209 46.0527V40.5833C31.6209 40.5833 34.6098 42.8361 38.1945 42.8361C41.7792 42.8361 41.6431 40.4916 41.6431 40.1694C41.6431 36.768 31.4834 36.768 31.4834 29.2277C31.4834 18.9764 46.2862 23.0208 46.2862 23.0208L46.1028 27.8944Z" fill="white"/>
</g>
<defs>
<clipPath id="clip0_147_2">
<rect width="50" height="50" fill="white"/>
</clipPath>
</defs>
</svg>
